<svg width="326" height="643" fill="none" xmlns="http://www.w3.org/2000/svg"><rect width="326" height="643" rx="25" fill="#171717"/><g filter="url(#a)"><ellipse rx="42.5" ry="43.5" transform="matrix(-1 0 0 1 162.5 293.5)" fill="#F59E0B"/></g><path d="m144.105 382 7.236-14.318v-.12h-8.429v-3.017h12.247v3.06L147.915 382h-3.81Zm20.052.384c-1.466-.006-2.727-.367-3.784-1.083-1.051-.716-1.861-1.753-2.429-3.111-.563-1.358-.841-2.991-.835-4.9 0-1.904.281-3.526.843-4.867.569-1.341 1.378-2.361 2.429-3.059 1.057-.705 2.316-1.057 3.776-1.057s2.716.352 3.767 1.057c1.057.704 1.869 1.727 2.438 3.068.568 1.335.849 2.954.843 4.858 0 1.915-.284 3.551-.852 4.909-.563 1.358-1.369 2.395-2.42 3.111-1.052.716-2.31 1.074-3.776 1.074Zm0-3.06c1 0 1.798-.503 2.395-1.509.596-1.005.892-2.514.886-4.525 0-1.324-.136-2.426-.409-3.307-.267-.881-.648-1.543-1.142-1.986a2.492 2.492 0 0 0-1.73-.665c-.994 0-1.79.498-2.386 1.492-.597.994-.898 2.483-.904 4.466 0 1.341.134 2.46.401 3.358.272.892.656 1.562 1.15 2.011a2.524 2.524 0 0 0 1.739.665Zm19.234-.597v-.92c0-.699.147-1.341.443-1.926a3.512 3.512 0 0 1 1.304-1.415c.574-.358 1.273-.537 2.096-.537.836 0 1.537.176 2.105.528a3.385 3.385 0 0 1 1.296 1.415c.295.585.443 1.23.443 1.935v.92c0 .699-.148 1.344-.443 1.935a3.451 3.451 0 0 1-1.304 1.406c-.574.358-1.273.537-2.097.537-.835 0-1.537-.179-2.105-.537-.568-.352-1-.821-1.295-1.406a4.26 4.26 0 0 1-.443-1.935Zm2.48-.92v.92c0 .404.096.784.29 1.142.198.358.556.537 1.073.537.517 0 .87-.176 1.057-.528.193-.352.29-.736.29-1.151v-.92a2.52 2.52 0 0 0-.273-1.159c-.182-.358-.54-.537-1.074-.537-.511 0-.866.179-1.065.537a2.346 2.346 0 0 0-.298 1.159Zm-11.438-9.068v-.921c0-.704.151-1.349.452-1.934a3.512 3.512 0 0 1 1.304-1.415c.574-.353 1.267-.529 2.079-.529.841 0 1.546.176 2.114.529.568.352 1 .824 1.296 1.415.295.585.443 1.23.443 1.934v.921c0 .704-.151 1.349-.452 1.934a3.447 3.447 0 0 1-1.304 1.407c-.568.346-1.267.519-2.097.519-.829 0-1.531-.176-2.105-.528a3.54 3.54 0 0 1-1.295-1.406 4.279 4.279 0 0 1-.435-1.926Zm2.497-.921v.921c0 .414.097.798.29 1.15.199.352.548.529 1.048.529.523 0 .878-.177 1.066-.529.193-.352.29-.736.29-1.15v-.921a2.52 2.52 0 0 0-.273-1.159c-.182-.358-.543-.537-1.083-.537-.505 0-.855.182-1.048.546-.193.363-.29.747-.29 1.15ZM175.558 382l12-17.455h2.233l-12 17.455h-2.233ZM56.918 515v-17.455h2.633v15.188h7.91V515H56.917Zm13.342 0v-13.091h2.548V515H70.26Zm1.287-15.111c-.443 0-.824-.148-1.142-.443a1.44 1.44 0 0 1-.469-1.074c0-.42.156-.778.469-1.074a1.603 1.603 0 0 1 1.142-.451c.443 0 .82.15 1.133.451.319.296.478.654.478 1.074 0 .415-.16.773-.478 1.074-.312.295-.69.443-1.133.443Zm15.888 2.02L82.688 515h-2.727l-4.756-13.091h2.736l3.315 10.074h.137l3.307-10.074h2.735ZM89.83 515v-13.091h2.549V515H89.83Zm1.287-15.111c-.443 0-.824-.148-1.142-.443a1.44 1.44 0 0 1-.469-1.074c0-.42.157-.778.47-1.074a1.603 1.603 0 0 1 1.141-.451c.443 0 .821.15 1.134.451.318.296.477.654.477 1.074 0 .415-.16.773-.477 1.074-.313.295-.69.443-1.134.443Zm7.238 7.338V515h-2.548v-13.091h2.446v2.131h.162a3.747 3.747 0 0 1 1.414-1.671c.648-.42 1.464-.63 2.447-.63.892 0 1.673.187 2.343.562.671.369 1.191.921 1.56 1.654.369.732.554 1.639.554 2.718V515h-2.548v-8.02c0-.949-.247-1.69-.742-2.224-.494-.54-1.173-.81-2.037-.81-.591 0-1.116.128-1.577.384a2.75 2.75 0 0 0-1.082 1.125c-.261.488-.392 1.079-.392 1.772Zm17.284 12.955c-1.04 0-1.934-.137-2.684-.409-.745-.273-1.353-.634-1.824-1.083a4.54 4.54 0 0 1-1.057-1.474l2.19-.904c.154.25.358.515.614.793.261.284.613.526 1.057.725.449.198 1.025.298 1.73.298.966 0 1.764-.236 2.395-.708.63-.465.946-1.21.946-2.232v-2.574h-.162a5.857 5.857 0 0 1-.665.929c-.284.341-.676.636-1.176.886-.5.25-1.151.375-1.952.375-1.034 0-1.966-.242-2.795-.724-.824-.489-1.478-1.208-1.961-2.157-.477-.954-.715-2.128-.715-3.52s.235-2.585.707-3.579c.477-.994 1.131-1.756 1.96-2.284.83-.534 1.77-.801 2.821-.801.813 0 1.469.136 1.969.409.5.267.889.579 1.168.937.284.358.502.674.656.946h.187v-2.122h2.497v13.381c0 1.125-.261 2.048-.784 2.77-.522.721-1.23 1.255-2.122 1.602-.886.347-1.886.52-3 .52Zm-.025-7.492c.733 0 1.352-.17 1.858-.511.511-.347.897-.841 1.159-1.483.267-.648.4-1.423.4-2.327 0-.88-.13-1.656-.392-2.326-.261-.671-.645-1.194-1.15-1.569-.506-.38-1.131-.571-1.875-.571-.767 0-1.407.199-1.918.597-.511.392-.898.926-1.159 1.602-.256.676-.384 1.432-.384 2.267 0 .858.131 1.611.392 2.259.262.648.648 1.153 1.16 1.517.517.364 1.153.545 1.909.545Zm15.905 2.31v-17.455h6.222c1.352 0 2.474.233 3.366.699.898.466 1.568 1.111 2.012 1.935.443.818.664 1.764.664 2.838 0 1.068-.224 2.009-.673 2.821-.443.807-1.114 1.435-2.011 1.884-.892.448-2.014.673-3.367.673h-4.713v-2.267h4.475c.852 0 1.545-.122 2.079-.367.54-.244.935-.599 1.185-1.065.25-.466.375-1.026.375-1.679 0-.659-.128-1.23-.384-1.713-.25-.483-.645-.852-1.184-1.108-.534-.261-1.236-.392-2.105-.392h-3.307V515h-2.634Zm8.617-7.875 4.312 7.875h-3l-4.227-7.875h2.915Zm11.998 8.139c-1.228 0-2.299-.281-3.214-.844-.914-.562-1.625-1.349-2.13-2.36-.506-1.012-.759-2.194-.759-3.546 0-1.358.253-2.545.759-3.562.505-1.017 1.216-1.807 2.13-2.37.915-.562 1.986-.843 3.214-.843 1.227 0 2.298.281 3.213.843.914.563 1.625 1.353 2.13 2.37.506 1.017.759 2.204.759 3.562 0 1.352-.253 2.534-.759 3.546-.505 1.011-1.216 1.798-2.13 2.36-.915.563-1.986.844-3.213.844Zm.008-2.139c.796 0 1.455-.21 1.977-.631.523-.42.909-.98 1.159-1.679.256-.699.384-1.468.384-2.309 0-.836-.128-1.603-.384-2.301-.25-.705-.636-1.27-1.159-1.696-.522-.427-1.181-.64-1.977-.64-.801 0-1.466.213-1.994.64-.523.426-.912.991-1.168 1.696a6.78 6.78 0 0 0-.375 2.301c0 .841.125 1.61.375 2.309.256.699.645 1.259 1.168 1.679.528.421 1.193.631 1.994.631Zm14.452 2.139c-1.227 0-2.298-.281-3.213-.844-.914-.562-1.625-1.349-2.13-2.36-.506-1.012-.759-2.194-.759-3.546 0-1.358.253-2.545.759-3.562.505-1.017 1.216-1.807 2.13-2.37.915-.562 1.986-.843 3.213-.843 1.228 0 2.299.281 3.214.843.914.563 1.625 1.353 2.13 2.37.506 1.017.759 2.204.759 3.562 0 1.352-.253 2.534-.759 3.546-.505 1.011-1.216 1.798-2.13 2.36-.915.563-1.986.844-3.214.844Zm.009-2.139c.795 0 1.455-.21 1.977-.631.523-.42.909-.98 1.159-1.679.256-.699.384-1.468.384-2.309 0-.836-.128-1.603-.384-2.301-.25-.705-.636-1.27-1.159-1.696-.522-.427-1.182-.64-1.977-.64-.801 0-1.466.213-1.994.64-.523.426-.912.991-1.168 1.696a6.78 6.78 0 0 0-.375 2.301c0 .841.125 1.61.375 2.309.256.699.645 1.259 1.168 1.679.528.421 1.193.631 1.994.631Zm8.938 1.875v-13.091h2.446v2.131h.162a3.387 3.387 0 0 1 1.338-1.688c.62-.409 1.361-.613 2.225-.613.875 0 1.608.204 2.199.613.596.409 1.036.972 1.321 1.688h.136a3.686 3.686 0 0 1 1.491-1.671c.682-.42 1.495-.63 2.438-.63 1.187 0 2.156.372 2.906 1.116.756.744 1.134 1.867 1.134 3.367V515h-2.549v-8.54c0-.886-.241-1.528-.724-1.926-.483-.398-1.06-.596-1.73-.596-.83 0-1.475.255-1.935.767-.46.505-.69 1.156-.69 1.951V515h-2.54v-8.702c0-.71-.222-1.281-.665-1.713-.443-.432-1.02-.647-1.73-.647-.483 0-.929.127-1.338.383-.403.25-.73.599-.98 1.048-.244.449-.367.969-.367 1.56V515h-2.548Zm27.767 0v-17.455h2.634v15.188h7.909V515h-10.543Zm13.343 0v-13.091h2.548V515h-2.548Zm1.287-15.111c-.444 0-.824-.148-1.143-.443a1.442 1.442 0 0 1-.468-1.074c0-.42.156-.778.468-1.074a1.606 1.606 0 0 1 1.143-.451c.443 0 .821.15 1.133.451.318.296.477.654.477 1.074 0 .415-.159.773-.477 1.074a1.59 1.59 0 0 1-1.133.443Zm10.178 20.293c-1.04 0-1.935-.137-2.685-.409-.744-.273-1.352-.634-1.824-1.083a4.556 4.556 0 0 1-1.057-1.474l2.191-.904c.153.25.358.515.613.793.262.284.614.526 1.057.725.449.198 1.026.298 1.73.298.966 0 1.765-.236 2.395-.708.631-.465.946-1.21.946-2.232v-2.574h-.162a5.844 5.844 0 0 1-.664.929c-.285.341-.677.636-1.177.886s-1.15.375-1.951.375c-1.034 0-1.966-.242-2.796-.724-.824-.489-1.477-1.208-1.96-2.157-.477-.954-.716-2.128-.716-3.52s.236-2.585.707-3.579c.478-.994 1.131-1.756 1.961-2.284.829-.534 1.77-.801 2.821-.801.812 0 1.468.136 1.968.409.5.267.89.579 1.168.937.284.358.503.674.656.946h.188v-2.122h2.497v13.381c0 1.125-.261 2.048-.784 2.77-.523.721-1.23 1.255-2.122 1.602-.887.347-1.887.52-3 .52Zm-.026-7.492c.733 0 1.352-.17 1.858-.511.512-.347.898-.841 1.159-1.483.267-.648.401-1.423.401-2.327 0-.88-.131-1.656-.392-2.326-.262-.671-.645-1.194-1.151-1.569-.505-.38-1.13-.571-1.875-.571-.767 0-1.406.199-1.917.597-.512.392-.898.926-1.16 1.602-.255.676-.383 1.432-.383 2.267 0 .858.131 1.611.392 2.259.261.648.648 1.153 1.159 1.517.517.364 1.154.545 1.909.545Zm11.898-5.463V515h-2.548v-17.455h2.514v6.495h.162a3.76 3.76 0 0 1 1.406-1.679c.631-.415 1.455-.622 2.472-.622.897 0 1.681.184 2.352.554.676.369 1.199.92 1.568 1.653.375.727.563 1.636.563 2.727V515h-2.549v-8.02c0-.96-.247-1.704-.741-2.233-.495-.534-1.182-.801-2.063-.801a3.37 3.37 0 0 0-1.619.384c-.472.255-.844.63-1.117 1.125-.267.488-.4 1.079-.4 1.772Zm18-5.318v2.046h-7.151v-2.046h7.151Zm-5.233-3.136h2.548v12.383c0 .495.074.867.222 1.117.148.244.338.412.571.503.239.085.497.127.775.127.205 0 .384-.014.537-.042l.358-.068.461 2.105a4.3 4.3 0 0 1-.631.17 4.917 4.917 0 0 1-1.023.102 4.48 4.48 0 0 1-1.875-.358 3.217 3.217 0 0 1-1.406-1.159c-.358-.522-.537-1.179-.537-1.968v-12.912Zm17.651 6.332-2.31.409a2.754 2.754 0 0 0-.46-.844 2.283 2.283 0 0 0-.836-.656c-.352-.17-.792-.255-1.321-.255-.721 0-1.323.161-1.806.485-.483.318-.725.73-.725 1.236 0 .438.162.79.486 1.057.324.267.847.486 1.568.656l2.08.477c1.204.279 2.102.708 2.693 1.287.591.58.886 1.333.886 2.259 0 .784-.227 1.483-.682 2.096-.448.608-1.076 1.086-1.883 1.432-.801.347-1.73.52-2.787.52-1.466 0-2.662-.312-3.588-.937-.926-.631-1.494-1.526-1.705-2.685l2.463-.375c.154.642.469 1.128.946 1.457.478.324 1.1.486 1.867.486.835 0 1.503-.173 2.003-.52.5-.352.75-.781.75-1.287a1.34 1.34 0 0 0-.46-1.031c-.302-.278-.765-.488-1.39-.631l-2.216-.485c-1.221-.279-2.125-.722-2.71-1.33-.579-.608-.869-1.378-.869-2.31 0-.772.216-1.448.648-2.028.431-.579 1.028-1.031 1.789-1.355.762-.33 1.634-.494 2.617-.494 1.415 0 2.528.306 3.341.92.812.608 1.349 1.423 1.611 2.446Z" fill="#FFFBEB"/><path d="M133.143 553v-1.273l3.937-4.079c.421-.443.767-.832 1.04-1.165.277-.337.483-.657.619-.96.137-.303.205-.625.205-.966 0-.387-.091-.72-.273-1a1.79 1.79 0 0 0-.744-.654 2.375 2.375 0 0 0-1.063-.233c-.416 0-.78.086-1.091.256-.31.171-.549.411-.715.722-.167.31-.25.674-.25 1.091h-1.677c0-.709.163-1.328.489-1.858a3.313 3.313 0 0 1 1.341-1.233c.568-.296 1.214-.443 1.937-.443.731 0 1.375.145 1.932.437.561.288.998.682 1.313 1.182.314.496.471 1.057.471 1.682 0 .432-.081.854-.244 1.267-.159.413-.437.873-.835 1.38-.398.504-.951 1.116-1.659 1.836l-2.313 2.42v.085h5.239V553h-7.659Zm14.206 0v-11.636h1.755v10.125h5.273V553h-7.028Zm8.895 0v-8.727h1.698V553h-1.698Zm.858-10.074a1.08 1.08 0 0 1-.762-.295.963.963 0 0 1-.312-.716c0-.281.104-.519.312-.716.212-.201.466-.301.762-.301.295 0 .547.1.755.301a.94.94 0 0 1 .318.716.954.954 0 0 1-.318.716c-.208.197-.46.295-.755.295Zm6.785 13.529c-.693 0-1.29-.091-1.79-.273-.496-.182-.901-.423-1.216-.722a3.028 3.028 0 0 1-.704-.983l1.46-.602c.102.167.239.343.409.528.174.19.409.351.705.483.299.133.683.199 1.153.199.644 0 1.176-.157 1.597-.471.42-.311.63-.807.63-1.489v-1.716h-.108c-.102.186-.25.392-.443.619a2.377 2.377 0 0 1-.784.591c-.333.167-.767.25-1.301.25a3.637 3.637 0 0 1-1.864-.483c-.549-.325-.984-.805-1.306-1.437-.319-.637-.478-1.419-.478-2.347 0-.928.157-1.723.472-2.386.318-.663.754-1.171 1.307-1.523a3.398 3.398 0 0 1 1.88-.534c.542 0 .98.091 1.313.273.333.178.593.386.778.625.19.238.336.449.438.631h.125v-1.415h1.665v8.92c0 .75-.175 1.366-.523 1.847-.349.481-.82.837-1.415 1.068-.591.231-1.258.347-2 .347Zm-.017-4.995c.489 0 .902-.113 1.239-.341.341-.231.598-.56.772-.988.178-.432.267-.949.267-1.551 0-.588-.087-1.105-.261-1.552-.174-.447-.43-.795-.767-1.045-.337-.254-.754-.381-1.25-.381-.511 0-.937.133-1.278.398a2.393 2.393 0 0 0-.773 1.068 4.237 4.237 0 0 0-.256 1.512c0 .572.087 1.073.262 1.505.174.432.431.769.772 1.012.345.242.769.363 1.273.363Zm7.932-3.642V553h-1.699v-11.636h1.676v4.329h.108c.205-.47.517-.843.938-1.119.42-.277.969-.415 1.647-.415.599 0 1.122.123 1.568.369.451.247.8.614 1.046 1.103.25.485.375 1.091.375 1.818V553h-1.699v-5.347c0-.64-.165-1.136-.494-1.488-.33-.356-.788-.534-1.375-.534-.402 0-.762.085-1.08.255a1.853 1.853 0 0 0-.744.75c-.178.326-.267.72-.267 1.182Zm12-3.545v1.363h-4.767v-1.363h4.767Zm-3.489-2.091h1.699v8.256c0 .329.049.577.148.744a.77.77 0 0 0 .38.335c.16.057.332.085.518.085.136 0 .255-.009.357-.028.103-.019.182-.034.239-.046l.307 1.404a2.768 2.768 0 0 1-.421.113 3.303 3.303 0 0 1-.681.069 2.994 2.994 0 0 1-1.25-.239 2.143 2.143 0 0 1-.938-.773c-.238-.348-.358-.786-.358-1.312v-8.608Zm11.767 4.221-1.54.273a1.813 1.813 0 0 0-.306-.562 1.528 1.528 0 0 0-.557-.438c-.235-.114-.529-.17-.881-.17-.481 0-.882.108-1.204.324-.322.212-.483.486-.483.823 0 .292.108.527.324.705.215.178.564.324 1.045.437l1.386.319c.803.185 1.402.471 1.796.858.394.386.591.888.591 1.505 0 .523-.152.989-.455 1.398-.299.405-.718.723-1.256.955-.534.231-1.153.346-1.857.346-.978 0-1.775-.208-2.393-.625-.617-.42-.996-1.017-1.136-1.79l1.642-.25c.102.428.313.752.631.972.318.216.733.324 1.244.324.557 0 1.002-.116 1.335-.347.334-.235.5-.521.5-.858a.892.892 0 0 0-.306-.687c-.201-.186-.51-.326-.927-.421l-1.477-.324c-.814-.185-1.417-.481-1.807-.886-.386-.405-.579-.918-.579-1.54a2.2 2.2 0 0 1 .432-1.352c.287-.386.685-.687 1.193-.903.507-.22 1.089-.33 1.744-.33.943 0 1.686.205 2.227.614.542.405.9.949 1.074 1.63Z" fill="#FBBF24"/><g filter="url(#b)"><circle cx="163" cy="293" r="45" fill="#171717"/></g><path d="M158.326 300h9.346-9.346ZM163 272v2-2Zm12.728 5.272-1.414 1.414 1.414-1.414ZM181 290h-2 2Zm-34 0h-2 2Zm4.686-11.314-1.414-1.414 1.414 1.414Zm4.242 18.386a10.004 10.004 0 0 1-2.167-10.898 10 10 0 0 1 14.794-4.487 10 10 0 0 1 1.517 15.385l-1.096 1.094a6.751 6.751 0 0 0-1.976 4.772V304a3.995 3.995 0 0 1-1.172 2.828 3.995 3.995 0 0 1-5.656 0A3.995 3.995 0 0 1 159 304v-1.062c0-1.79-.712-3.508-1.976-4.772l-1.096-1.094Z" stroke="#FBBF24" stroke-width="4" stroke-linecap="round" stroke-linejoin="round"/><g filter="url(#c)"><path d="M127.684 370.034a84.502 84.502 0 0 1-9.537-147.832 84.497 84.497 0 0 1 86.022-2.771A84.492 84.492 0 0 1 248 293.5" stroke="#FBBF24" stroke-width="8"/></g><path d="m103.909 95 3.019-18.182h3.844l-1.243 7.502h7.804l1.242-7.502h3.836L119.392 95h-3.835l1.243-7.51h-7.804L107.753 95h-3.844Zm24.761.266c-1.391 0-2.542-.296-3.454-.887-.911-.598-1.554-1.427-1.926-2.486-.367-1.066-.435-2.305-.205-3.72.225-1.397.693-2.619 1.403-3.667a7.436 7.436 0 0 1 2.708-2.441c1.095-.586 2.329-.879 3.702-.879 1.385 0 2.533.299 3.444.897.912.592 1.554 1.42 1.927 2.486.373 1.065.444 2.305.213 3.72-.231 1.39-.704 2.61-1.42 3.657a7.621 7.621 0 0 1-2.708 2.45c-1.089.58-2.317.87-3.684.87Zm.372-2.93c.64 0 1.205-.18 1.696-.54.497-.368.909-.865 1.234-1.492.332-.634.562-1.35.693-2.149.13-.787.139-1.485.026-2.095-.112-.615-.349-1.1-.71-1.456-.355-.355-.843-.533-1.465-.533-.639 0-1.207.184-1.704.55-.498.362-.909.859-1.234 1.492a7.189 7.189 0 0 0-.684 2.158c-.124.78-.133 1.48-.027 2.095.107.61.341 1.092.702 1.447.361.35.852.524 1.473.524ZM137.849 95l2.273-13.636h3.595l-.39 2.405h.151a4.765 4.765 0 0 1 1.731-1.89c.746-.462 1.583-.693 2.512-.693.924 0 1.675.234 2.255.701.586.462.924 1.09 1.012 1.882h.142c.403-.78 1.01-1.405 1.82-1.873.811-.473 1.717-.71 2.717-.71 1.261 0 2.225.405 2.894 1.216.669.811.879 1.954.631 3.427L157.665 95h-3.782l1.42-8.425c.112-.764 0-1.332-.337-1.705-.338-.378-.808-.568-1.412-.568-.686 0-1.258.22-1.713.657-.456.432-.737 1.003-.844 1.714L149.586 95h-3.667l1.438-8.505c.101-.675-.009-1.207-.328-1.598-.314-.397-.784-.595-1.412-.595a2.34 2.34 0 0 0-1.18.32c-.367.207-.678.5-.933.879-.254.373-.42.81-.497 1.314L141.622 95h-3.773Zm28.955.266c-1.396 0-2.554-.284-3.471-.852-.917-.574-1.562-1.385-1.935-2.433-.367-1.053-.429-2.299-.187-3.737.237-1.403.713-2.634 1.43-3.693a7.708 7.708 0 0 1 2.716-2.477c1.089-.592 2.303-.888 3.64-.888.9 0 1.714.145 2.442.435a4.42 4.42 0 0 1 1.828 1.296c.486.574.817 1.293.995 2.158.183.864.18 1.876-.009 3.036l-.169 1.038h-11.506l.364-2.343h7.955c.089-.545.053-1.027-.107-1.447a1.957 1.957 0 0 0-.799-.986c-.372-.242-.831-.364-1.376-.364-.556 0-1.077.136-1.562.409-.485.272-.894.63-1.225 1.074a3.402 3.402 0 0 0-.631 1.43l-.417 2.325c-.118.716-.095 1.311.071 1.785.172.473.468.828.888 1.065.42.23.953.346 1.598.346.42 0 .814-.059 1.181-.177.373-.119.704-.293.994-.524.29-.237.527-.53.71-.88l3.454.232a5.975 5.975 0 0 1-1.456 2.202c-.651.62-1.435 1.106-2.353 1.455-.911.344-1.932.515-3.063.515ZM187.656 82.1c.03-.74-.186-1.31-.648-1.713-.456-.402-1.145-.604-2.069-.604-.627 0-1.171.09-1.633.267-.462.171-.832.411-1.11.719a2.025 2.025 0 0 0-.506 1.047c-.065.326-.044.61.062.853.113.242.287.452.524.63.243.172.53.323.861.453.332.124.684.23 1.057.32l1.562.39c.764.178 1.45.414 2.06.71.615.296 1.13.66 1.545 1.092.42.432.716.941.887 1.527.172.586.196 1.258.071 2.016-.189 1.112-.63 2.077-1.322 2.894-.693.81-1.601 1.44-2.726 1.89-1.124.445-2.426.666-3.906.666-1.468 0-2.708-.224-3.72-.674-1.012-.45-1.749-1.116-2.21-1.998-.456-.888-.592-1.985-.409-3.293h3.72c-.065.61.024 1.118.266 1.526.249.403.619.708 1.11.915.491.201 1.068.302 1.731.302.657 0 1.24-.095 1.749-.284.515-.19.932-.453 1.252-.79.32-.338.515-.725.586-1.163.071-.409.009-.752-.187-1.03-.195-.278-.509-.515-.941-.71-.426-.202-.955-.38-1.589-.533l-1.9-.497c-1.467-.373-2.577-.956-3.329-1.75-.751-.792-1.021-1.86-.808-3.204a5.74 5.74 0 0 1 1.376-2.885c.734-.829 1.658-1.471 2.77-1.927 1.119-.462 2.341-.692 3.667-.692 1.349 0 2.489.233 3.418.701.929.462 1.607 1.107 2.033 1.935.426.829.556 1.794.39 2.894h-3.684ZM192 95l2.272-13.636h3.596l-.391 2.405h.151a4.773 4.773 0 0 1 1.731-1.89c.746-.462 1.584-.693 2.513-.693.923 0 1.675.234 2.255.701.586.462.923 1.09 1.012 1.882h.142c.402-.78 1.009-1.405 1.82-1.873.811-.473 1.716-.71 2.716-.71 1.261 0 2.226.405 2.895 1.216.668.811.879 1.954.63 3.427L211.815 95h-3.782l1.42-8.425c.113-.764 0-1.332-.337-1.705-.337-.378-.808-.568-1.411-.568-.687 0-1.258.22-1.714.657-.456.432-.737 1.003-.843 1.714L203.736 95h-3.666l1.438-8.505c.1-.675-.009-1.207-.329-1.598-.313-.397-.784-.595-1.411-.595-.415 0-.808.107-1.181.32a2.74 2.74 0 0 0-.932.879c-.255.373-.42.81-.497 1.314L195.773 95H192Zm26.629.257c-.864 0-1.613-.15-2.246-.452a2.927 2.927 0 0 1-1.385-1.368c-.296-.603-.37-1.352-.222-2.246.13-.757.376-1.39.737-1.9a4.39 4.39 0 0 1 1.34-1.242 6.677 6.677 0 0 1 1.749-.72 12.239 12.239 0 0 1 1.998-.337 41.11 41.11 0 0 0 1.935-.24c.503-.076.879-.186 1.127-.328a.922.922 0 0 0 .453-.657v-.053c.089-.557-.015-.989-.311-1.296-.29-.314-.754-.47-1.393-.47-.675 0-1.249.147-1.723.443-.467.296-.802.672-1.003 1.127l-3.444-.284a5.737 5.737 0 0 1 1.393-2.148 6.37 6.37 0 0 1 2.264-1.403c.882-.331 1.87-.497 2.965-.497a8.11 8.11 0 0 1 2.122.266 4.768 4.768 0 0 1 1.714.826c.485.373.834.852 1.047 1.438.219.58.264 1.276.133 2.087L226.344 95h-3.587l.319-1.891h-.106a4.93 4.93 0 0 1-1.065 1.128c-.421.32-.903.57-1.447.754a5.886 5.886 0 0 1-1.829.266Zm1.518-2.61c.55 0 1.056-.11 1.518-.328a3.26 3.26 0 0 0 1.154-.906c.308-.378.503-.807.586-1.287l.231-1.447c-.119.077-.29.145-.515.204-.219.06-.459.116-.719.169-.255.047-.512.092-.773.133-.26.035-.494.071-.701.106a5.446 5.446 0 0 0-1.225.311 2.348 2.348 0 0 0-.879.577 1.595 1.595 0 0 0-.417.888c-.083.515.038.909.364 1.18.331.267.79.4 1.376.4ZM229.278 95l2.272-13.636h3.667l-.4 2.379h.142c.391-.846.915-1.486 1.572-1.918a3.809 3.809 0 0 1 2.139-.657c.19 0 .388.012.595.036.213.018.403.047.568.089l-.568 3.364a3.35 3.35 0 0 0-.71-.142 6.334 6.334 0 0 0-.861-.062c-.551 0-1.063.121-1.536.364a3.412 3.412 0 0 0-1.199.994 3.45 3.45 0 0 0-.63 1.474L233.06 95h-3.782Zm20.439-13.636-.471 2.84h-8.221l.48-2.84h8.212Zm-5.815-3.267h3.782l-2.113 12.713c-.059.349-.051.621.026.816.077.19.205.323.382.4.184.077.403.115.657.115.178 0 .358-.015.542-.044l.417-.08.142 2.814c-.213.065-.5.136-.861.213a7.29 7.29 0 0 1-1.261.142c-.923.036-1.704-.085-2.344-.364-.639-.284-1.098-.719-1.376-1.305-.278-.585-.337-1.322-.177-2.21l2.184-13.21Z" fill="#FBBF24"/><circle r="4.5" transform="matrix(-1 0 0 1 92.5 79.5)" fill="#FBBF24"/><circle r="4.5" transform="matrix(-1 0 0 1 92.5 91.5)" fill="#FBBF24"/><circle r="4.5" transform="matrix(-1 0 0 1 80.5 91.5)" fill="#FBBF24"/><g filter="url(#d)"><circle cx="247.5" cy="295.5" r="7.5" fill="#FBBF24"/></g><defs><filter id="a" x="56" y="186" width="213" height="215" filterUnits="userSpaceOnUse" color-interpolation-filters="sRGB"><feFlood flood-opacity="0" result="BackgroundImageFix"/><feBlend in="SourceGraphic" in2="BackgroundImageFix" result="shape"/><feGaussianBlur stdDeviation="32" result="effect1_foregroundBlur_2_36"/></filter><filter id="b" x="80" y="235" width="166" height="166" filterUnits="userSpaceOnUse" color-interpolation-filters="sRGB"><feFlood flood-opacity="0" result="BackgroundImageFix"/><feColorMatrix in="SourceAlpha" values="0 0 0 0 0 0 0 0 0 0 0 0 0 0 0 0 0 0 127 0" result="hardAlpha"/><feMorphology radius="12" in="SourceAlpha" result="effect1_dropShadow_2_36"/><feOffset dy="25"/><feGaussianBlur stdDeviation="25"/><feComposite in2="hardAlpha" operator="out"/><feColorMatrix values="0 0 0 0 0.984314 0 0 0 0 0.74902 0 0 0 0 0.141176 0 0 0 0.25 0"/><feBlend in2="BackgroundImageFix" result="effect1_dropShadow_2_36"/><feBlend in="SourceGraphic" in2="effect1_dropShadow_2_36" result="shape"/></filter><filter id="c" x="55" y="205" width="217" height="208.657" filterUnits="userSpaceOnUse" color-interpolation-filters="sRGB"><feFlood flood-opacity="0" result="BackgroundImageFix"/><feColorMatrix in="SourceAlpha" values="0 0 0 0 0 0 0 0 0 0 0 0 0 0 0 0 0 0 127 0" result="hardAlpha"/><feMorphology radius="5" in="SourceAlpha" result="effect1_dropShadow_2_36"/><feOffset dy="20"/><feGaussianBlur stdDeviation="12.5"/><feComposite in2="hardAlpha" operator="out"/><feColorMatrix values="0 0 0 0 0.984314 0 0 0 0 0.74902 0 0 0 0 0.141176 0 0 0 0.2 0"/><feBlend in2="BackgroundImageFix" result="effect1_dropShadow_2_36"/><feColorMatrix in="SourceAlpha" values="0 0 0 0 0 0 0 0 0 0 0 0 0 0 0 0 0 0 127 0" result="hardAlpha"/><feMorphology radius="6" in="SourceAlpha" result="effect2_dropShadow_2_36"/><feOffset dy="8"/><feGaussianBlur stdDeviation="5"/><feComposite in2="hardAlpha" operator="out"/><feColorMatrix values="0 0 0 0 0.984314 0 0 0 0 0.74902 0 0 0 0 0.141176 0 0 0 0.2 0"/><feBlend in2="effect1_dropShadow_2_36" result="effect2_dropShadow_2_36"/><feBlend in="SourceGraphic" in2="effect2_dropShadow_2_36" result="shape"/></filter><filter id="d" x="220" y="288" width="55" height="55" filterUnits="userSpaceOnUse" color-interpolation-filters="sRGB"><feFlood flood-opacity="0" result="BackgroundImageFix"/><feColorMatrix in="SourceAlpha" values="0 0 0 0 0 0 0 0 0 0 0 0 0 0 0 0 0 0 127 0" result="hardAlpha"/><feMorphology radius="5" in="SourceAlpha" result="effect1_dropShadow_2_36"/><feOffset dy="20"/><feGaussianBlur stdDeviation="12.5"/><feComposite in2="hardAlpha" operator="out"/><feColorMatrix values="0 0 0 0 0.984314 0 0 0 0 0.74902 0 0 0 0 0.141176 0 0 0 0.2 0"/><feBlend in2="BackgroundImageFix" result="effect1_dropShadow_2_36"/><feColorMatrix in="SourceAlpha" values="0 0 0 0 0 0 0 0 0 0 0 0 0 0 0 0 0 0 127 0" result="hardAlpha"/><feMorphology radius="6" in="SourceAlpha" result="effect2_dropShadow_2_36"/><feOffset dy="8"/><feGaussianBlur stdDeviation="5"/><feComposite in2="hardAlpha" operator="out"/><feColorMatrix values="0 0 0 0 0.984314 0 0 0 0 0.74902 0 0 0 0 0.141176 0 0 0 0.2 0"/><feBlend in2="effect1_dropShadow_2_36" result="effect2_dropShadow_2_36"/><feBlend in="SourceGraphic" in2="effect2_dropShadow_2_36" result="shape"/></filter></defs></svg>