<svg width="341" height="61" fill="none" xmlns="http://www.w3.org/2000/svg"><circle r="7.5" transform="matrix(-1 0 0 1 28 20.5)" fill="#171717"/><circle r="7.5" transform="matrix(-1 0 0 1 28 40.5)" fill="#171717"/><circle r="7.5" transform="matrix(-1 0 0 1 8 40.5)" fill="#171717"/><path d="m48.818 49 6.037-36.364h7.689L60.058 27.64h15.607l2.486-15.004h7.67L79.784 49h-7.67L74.6 33.979H58.993L56.507 49h-7.689Zm49.521.533c-2.782 0-5.084-.592-6.907-1.776-1.823-1.195-3.107-2.853-3.853-4.971-.734-2.131-.87-4.611-.408-7.44.45-2.794 1.385-5.238 2.805-7.333 1.42-2.095 3.226-3.723 5.416-4.883 2.19-1.172 4.658-1.758 7.404-1.758 2.77 0 5.066.598 6.889 1.794 1.823 1.183 3.107 2.84 3.853 4.971.746 2.13.888 4.61.426 7.44-.462 2.781-1.409 5.22-2.841 7.315-1.432 2.095-3.237 3.729-5.415 4.9-2.178 1.16-4.635 1.74-7.369 1.74Zm.746-5.86c1.278 0 2.409-.36 3.391-1.083.994-.734 1.817-1.728 2.468-2.983.663-1.266 1.125-2.699 1.385-4.297.261-1.574.278-2.97.053-4.19-.225-1.231-.698-2.202-1.42-2.912-.71-.71-1.687-1.065-2.93-1.065-1.278 0-2.414.367-3.409 1.1-.994.723-1.817 1.717-2.468 2.984-.65 1.266-1.107 2.704-1.367 4.314-.249 1.563-.266 2.96-.053 4.19.213 1.22.68 2.184 1.402 2.895.722.698 1.705 1.047 2.948 1.047ZM116.698 49l4.546-27.273h7.191l-.781 4.812h.302c.828-1.598 1.982-2.859 3.462-3.782 1.491-.923 3.166-1.385 5.025-1.385 1.846 0 3.35.468 4.51 1.403 1.172.923 1.846 2.178 2.024 3.764h.284c.805-1.562 2.018-2.811 3.64-3.746 1.622-.947 3.433-1.42 5.433-1.42 2.521 0 4.451.81 5.788 2.432 1.338 1.621 1.758 3.906 1.261 6.853L156.329 49h-7.564l2.841-16.85c.225-1.527 0-2.663-.675-3.41-.674-.757-1.615-1.136-2.823-1.136-1.373 0-2.515.438-3.427 1.314-.911.864-1.473 2.007-1.686 3.427L140.171 49h-7.333l2.877-17.01c.201-1.35-.018-2.415-.657-3.196-.628-.793-1.569-1.19-2.823-1.19a4.69 4.69 0 0 0-2.362.64c-.734.414-1.355 1-1.864 1.757-.509.746-.841 1.622-.995 2.628L124.245 49h-7.547Zm57.911.533c-2.794 0-5.108-.569-6.943-1.705-1.835-1.148-3.125-2.77-3.871-4.865-.734-2.107-.858-4.599-.373-7.475.474-2.806 1.427-5.268 2.859-7.386 1.444-2.12 3.255-3.77 5.433-4.954 2.178-1.184 4.605-1.776 7.28-1.776 1.799 0 3.427.29 4.883.87 1.468.568 2.687 1.432 3.658 2.592.97 1.149 1.633 2.587 1.988 4.315.367 1.728.361 3.752-.017 6.073l-.338 2.077h-23.011l.728-4.688h15.909c.178-1.088.106-2.053-.213-2.894a3.924 3.924 0 0 0-1.598-1.97c-.746-.486-1.663-.729-2.752-.729a6.283 6.283 0 0 0-3.125.817 7.765 7.765 0 0 0-2.451 2.149 6.8 6.8 0 0 0-1.26 2.858l-.835 4.652c-.236 1.433-.189 2.622.142 3.57.344.946.935 1.656 1.776 2.13.84.462 1.906.692 3.196.692.84 0 1.628-.118 2.361-.355a6.146 6.146 0 0 0 1.989-1.047 5.604 5.604 0 0 0 1.421-1.758l6.906.462a11.933 11.933 0 0 1-2.911 4.403c-1.303 1.243-2.871 2.213-4.706 2.912-1.823.686-3.865 1.03-6.125 1.03ZM216.312 23.2c.059-1.48-.373-2.622-1.296-3.427-.911-.805-2.29-1.207-4.137-1.207-1.255 0-2.344.177-3.267.532-.923.344-1.663.823-2.22 1.439a4.058 4.058 0 0 0-1.012 2.095c-.13.65-.088 1.219.125 1.704.225.486.574.906 1.047 1.261.486.343 1.06.645 1.723.906.662.248 1.367.461 2.113.639l3.125.781c1.527.355 2.9.829 4.119 1.42 1.231.592 2.261 1.32 3.089 2.184a7.219 7.219 0 0 1 1.776 3.054c.343 1.172.391 2.516.142 4.03-.379 2.226-1.261 4.156-2.646 5.79-1.385 1.621-3.202 2.882-5.451 3.781-2.249.888-4.853 1.332-7.812 1.332-2.936 0-5.416-.45-7.44-1.35-2.024-.9-3.498-2.23-4.421-3.995-.911-1.775-1.184-3.97-.817-6.587h7.44c-.13 1.22.047 2.237.533 3.054.497.805 1.237 1.415 2.219 1.829.983.402 2.137.604 3.462.604 1.314 0 2.48-.19 3.498-.569 1.03-.378 1.865-.905 2.504-1.58s1.03-1.45 1.172-2.326c.142-.817.017-1.503-.373-2.06-.391-.556-1.018-1.03-1.882-1.42-.853-.402-1.912-.758-3.179-1.065l-3.799-.995c-2.936-.745-5.155-1.911-6.659-3.497-1.503-1.587-2.042-3.723-1.615-6.41.378-2.202 1.296-4.125 2.752-5.77 1.468-1.658 3.314-2.942 5.54-3.854 2.237-.923 4.681-1.385 7.333-1.385 2.698 0 4.977.468 6.836 1.403 1.858.923 3.213 2.213 4.066 3.87.852 1.658 1.112 3.587.781 5.789h-7.369ZM224.999 49l4.546-27.273h7.191l-.782 4.812h.302c.829-1.598 1.983-2.859 3.463-3.782 1.491-.923 3.166-1.385 5.025-1.385 1.846 0 3.349.468 4.509 1.403 1.172.923 1.847 2.178 2.025 3.764h.284c.805-1.562 2.018-2.811 3.64-3.746 1.621-.947 3.432-1.42 5.433-1.42 2.521 0 4.451.81 5.788 2.432 1.338 1.621 1.758 3.906 1.261 6.853L264.63 49h-7.564l2.841-16.85c.225-1.527 0-2.663-.675-3.41-.675-.757-1.616-1.136-2.823-1.136-1.373 0-2.515.438-3.427 1.314-.911.864-1.474 2.007-1.687 3.427L248.472 49h-7.333l2.877-17.01c.201-1.35-.018-2.415-.657-3.196-.628-.793-1.569-1.19-2.824-1.19a4.69 4.69 0 0 0-2.361.64c-.734.414-1.355 1-1.864 1.757-.509.746-.841 1.622-.995 2.628L232.545 49h-7.546Zm53.258.515c-1.728 0-3.225-.302-4.492-.906-1.255-.615-2.178-1.527-2.77-2.734-.592-1.207-.74-2.705-.444-4.492.261-1.515.752-2.782 1.474-3.8a8.798 8.798 0 0 1 2.681-2.486 13.347 13.347 0 0 1 3.498-1.438 24.474 24.474 0 0 1 3.995-.675 82.018 82.018 0 0 0 3.871-.479c1.006-.154 1.758-.373 2.255-.657.497-.296.799-.734.905-1.314v-.106c.178-1.113-.029-1.977-.621-2.593-.58-.627-1.509-.94-2.788-.94-1.349 0-2.497.295-3.444.887-.935.592-1.604 1.343-2.007 2.255l-6.889-.568a11.49 11.49 0 0 1 2.788-4.297c1.254-1.22 2.764-2.155 4.527-2.806 1.764-.662 3.741-.994 5.931-.994 1.515 0 2.93.178 4.243.533 1.326.355 2.468.905 3.427 1.651a6.234 6.234 0 0 1 2.095 2.877c.438 1.16.527 2.55.267 4.172L293.687 49h-7.173l.639-3.782h-.213a9.845 9.845 0 0 1-2.131 2.255 10.02 10.02 0 0 1-2.894 1.51c-1.089.354-2.308.532-3.658.532Zm3.037-5.22c1.1 0 2.113-.22 3.036-.657.935-.45 1.704-1.054 2.308-1.811a5.504 5.504 0 0 0 1.172-2.575l.462-2.894c-.237.154-.58.29-1.03.408-.438.119-.918.231-1.438.338-.509.094-1.024.183-1.545.266-.521.071-.989.142-1.403.213-.911.13-1.728.337-2.45.622-.722.284-1.308.668-1.758 1.154-.45.473-.728 1.065-.835 1.775-.165 1.03.077 1.817.728 2.362.663.532 1.581.799 2.753.799ZM299.555 49l4.546-27.273h7.333l-.799 4.759h.284c.781-1.693 1.829-2.971 3.143-3.835 1.325-.876 2.752-1.314 4.279-1.314.379 0 .775.023 1.189.07a7.18 7.18 0 0 1 1.137.178l-1.137 6.73c-.331-.119-.804-.213-1.42-.285a12.7 12.7 0 0 0-1.722-.124 6.638 6.638 0 0 0-3.072.728 6.82 6.82 0 0 0-2.397 1.989c-.639.852-1.059 1.835-1.261 2.947L307.119 49h-7.564Zm40.878-27.273-.941 5.682h-16.441l.958-5.682h16.424Zm-11.63-6.534h7.564l-4.226 25.426c-.118.699-.1 1.243.054 1.634.154.379.408.645.763.799.367.154.805.23 1.314.23.355 0 .716-.029 1.083-.088l.835-.16.284 5.629c-.426.13-1 .272-1.722.426-.711.154-1.551.248-2.522.284-1.846.07-3.409-.172-4.687-.728-1.279-.568-2.196-1.438-2.752-2.61-.557-1.172-.675-2.646-.356-4.421l4.368-26.42Z" fill="#171717"/></svg>