<svg width="77" height="59" viewBox="0 0 77 59" fill="none" xmlns="http://www.w3.org/2000/svg">
<path d="M0 35.4076V47.2069C0 53.7194 17.2288 59 38.5 59V47.2069C17.2288 47.2069 0 41.9138 0 35.4139V35.4076ZM68.607 42.7581L38.5 35.4076V47.2069L68.607 54.5575C73.8558 52.5411 77 49.989 77 47.2069V35.4076C77 38.1865 73.8558 40.7385 68.607 42.7581ZM38.5 23.6176V35.4076C17.2384 35.4076 0 30.1238 0 23.6113V11.7931C0 5.29002 17.2288 0 38.5 0C59.7552 0 77 5.29317 77 11.7962V23.6113C77 26.3934 73.8558 28.936 68.607 30.9651L38.5 23.6082V23.6176Z" fill="#171717"/>
</svg>
