<svg width="77" height="77" viewBox="0 0 77 77" fill="none" xmlns="http://www.w3.org/2000/svg">
<path d="M36.9279 0C26.7511 0 16.1507 1.72287 8.64325 8.64325C1.60417 16.5999 0 27.1553 0 36.976V39.9983C0 50.1527 1.72287 60.8492 8.64325 68.36C16.6448 75.4375 27.2516 77 37.1172 77H39.8571C50.0596 77 60.8011 75.2996 68.3568 68.3568C75.4408 60.352 77 49.7292 77 39.8571V37.1204C77 26.9179 75.2996 16.1764 68.3568 8.64325C60.4001 1.58492 49.8703 0 40.0464 0H36.9279ZM38.5 11.2452C42.4912 11.2452 45.738 14.4215 45.738 18.3228C45.738 21.7397 43.5403 24.6625 40.2357 25.3202V30.4214C44.984 31.108 48.3464 35.0093 48.3464 39.8347C48.3464 45.1413 43.9285 49.4597 38.4968 49.4597C33.0683 49.4597 28.6536 45.1413 28.6536 39.8347C28.6536 39.2892 28.7082 38.7599 28.798 38.2401L23.87 36.6745C23.2287 37.7734 22.3094 38.6842 21.2043 39.315C20.0993 39.9458 18.8476 40.2744 17.5753 40.2678C16.8149 40.2678 16.0641 40.1491 15.3358 39.9149C11.5404 38.7118 9.45496 34.711 10.687 30.9957C11.1743 29.56 12.1021 28.3146 13.3382 27.4367C14.5744 26.5588 16.0559 26.0933 17.572 26.1062C18.3324 26.1062 19.0832 26.2217 19.8115 26.4527C20.711 26.7335 21.5462 27.1893 22.2692 27.7938C22.9921 28.3984 23.5884 29.1398 24.024 29.9755C24.6785 31.2299 24.9287 32.6159 24.7683 33.9827L29.6931 35.5483C31.1048 32.7892 34.1142 30.8866 37.3418 30.4182V25.3202C34.0404 24.6625 31.2588 21.7397 31.2588 18.3228C31.2588 14.4183 34.5056 11.2452 38.5 11.2452ZM38.5 14.075C36.1034 14.075 34.1559 15.9807 34.1559 18.3228C34.1559 20.6649 36.1034 22.5706 38.5 22.5706C40.8934 22.5706 42.8441 20.6649 42.8441 18.3228C42.8441 15.9807 40.8934 14.075 38.5 14.075ZM59.4247 26.1062C62.5689 26.1062 65.3377 28.0729 66.3098 30.9989C66.9066 32.7956 66.7526 34.7142 65.8767 36.3985C64.9976 38.0861 63.5025 39.3342 61.661 39.9149C60.9327 40.1491 60.1819 40.2678 59.4215 40.2678C58.1492 40.2744 56.8975 39.9458 55.7925 39.315C54.6874 38.6842 53.768 37.7734 53.1268 36.6745L51.0927 37.3193L50.2008 34.6307L52.2285 33.9827C52.0534 32.347 52.4525 30.7014 53.3574 29.3277C54.2623 27.954 55.6167 26.9376 57.1885 26.4527C57.9136 26.2217 58.6644 26.1062 59.4247 26.1062ZM17.5688 28.9392C15.6823 28.9392 14.0236 30.1198 13.4397 31.8748C12.7018 34.1014 13.9498 36.5012 16.2278 37.2263C16.6641 37.3642 17.1165 37.4348 17.572 37.4348C19.4585 37.4348 21.1172 36.2542 21.7012 34.4992C21.8788 33.9695 21.9474 33.4093 21.9027 32.8524C21.858 32.2955 21.7011 31.7534 21.4413 31.2588C21.1796 30.7578 20.8216 30.3134 20.3877 29.9511C19.9539 29.5889 19.4528 29.3158 18.9131 29.1477C18.4775 29.0089 18.0229 28.9385 17.5656 28.9392H17.5688ZM59.4215 28.9392C58.966 28.9392 58.5168 29.0065 58.0772 29.1477C57.5404 29.3123 57.0416 29.5821 56.61 29.9413C56.1784 30.3004 55.8225 30.7419 55.563 31.2399C55.3036 31.7379 55.1458 32.2825 55.0988 32.842C55.0518 33.4016 55.1165 33.9649 55.2892 34.4992C55.8731 36.2542 57.535 37.4348 59.4183 37.4348C59.8739 37.4348 60.3263 37.3642 60.7658 37.2263C61.8695 36.8734 62.7646 36.1258 63.2908 35.112C63.8202 34.1014 63.91 32.9528 63.5539 31.8748C63.2616 31.0129 62.7048 30.2652 61.9629 29.7381C61.2209 29.211 60.3316 28.9315 59.4215 28.9392ZM38.5 33.6041C34.9869 33.6041 32.1283 36.3985 32.1283 39.8347C32.1283 43.2676 34.9837 46.062 38.5 46.062C42.0099 46.062 44.8685 43.2708 44.8685 39.8379C44.8685 36.3985 42.0131 33.6041 38.5 33.6041ZM29.8182 49.1035L32.1603 50.7687L30.9091 52.4562C33.1838 54.885 33.479 58.6323 31.4224 61.3979C30.0653 63.2266 27.874 64.3175 25.5608 64.3175C24.0272 64.3175 22.5546 63.8458 21.3097 62.9635C20.5446 62.428 19.8947 61.7445 19.3984 60.9534C18.902 60.1623 18.5694 59.2796 18.4201 58.3577C18.2709 57.4358 18.308 56.4934 18.5294 55.5861C18.7507 54.6788 19.1518 53.8251 19.7088 53.0755C20.7065 51.7463 22.127 50.7966 23.7365 50.3825C25.346 49.9685 27.0486 50.1149 28.5638 50.7975L29.8182 49.1035ZM47.1753 49.1035L48.433 50.7975C49.9487 50.1178 51.6504 49.973 53.2591 50.3869C54.8679 50.8007 56.2884 51.7487 57.288 53.0755C57.8446 53.8252 58.2453 54.6789 58.4664 55.5862C58.6875 56.4934 58.7245 57.4357 58.5753 58.3575C58.426 59.2793 58.0935 60.1618 57.5975 60.9529C57.1014 61.744 56.4518 62.4277 55.687 62.9635C54.4457 63.8463 52.9592 64.3186 51.436 64.3142C50.2993 64.3165 49.1777 64.0538 48.1602 63.547C47.1428 63.0402 46.2574 62.3033 45.5744 61.3947C44.5972 60.0821 44.1131 58.4675 44.207 56.8338C44.3009 55.2001 44.9667 53.6515 46.0877 52.4595L44.8365 50.7687L47.1753 49.1035ZM25.5704 52.9856C24.1812 52.9856 22.8658 53.6433 22.0509 54.7406C20.6392 56.6335 21.0755 59.2964 23.0134 60.6728C23.9473 61.3387 25.1046 61.6132 26.2382 61.4375C27.3717 61.2619 28.3917 60.6501 29.0803 59.7327C30.492 57.8398 30.0589 55.1769 28.1178 53.7973C27.3738 53.2688 26.4831 52.9861 25.5704 52.9888V52.9856ZM51.4264 52.9856C50.5056 52.9856 49.6265 53.268 48.8757 53.8005C48.4172 54.1222 48.0277 54.5325 47.7302 55.0071C47.4328 55.4818 47.2335 56.0112 47.1441 56.5642C47.0547 57.1171 47.077 57.6824 47.2096 58.2266C47.3423 58.7708 47.5826 59.283 47.9165 59.7327C48.6056 60.6494 49.6255 61.2607 50.7588 61.4363C51.8921 61.6119 53.0492 61.3379 53.9834 60.6728C54.4427 60.3514 54.8329 59.9411 55.1309 59.4663C55.4289 58.9915 55.6287 58.4618 55.7184 57.9084C55.8082 57.355 55.786 56.7893 55.6533 56.2446C55.5207 55.7 55.2801 55.1875 54.9459 54.7374C54.5352 54.1928 54.0033 53.7513 53.3924 53.4478C52.7816 53.1444 52.1085 52.9872 51.4264 52.9888V52.9856Z" fill="#171717"/>
</svg>
