<svg width="77" height="37" viewBox="0 0 77 37" fill="none" xmlns="http://www.w3.org/2000/svg">
<path d="M53.3225 30.3558V14.8205C53.3225 14.8205 53.3225 14.0769 52.5621 14.0769C51.8402 14.0769 51.8403 14.8205 51.8403 14.8205V36.2244H48.8757V11.8526C48.8757 11.8526 48.8052 8.15384 52.5653 8.15384C56.2645 8.15384 56.2645 11.8494 56.2645 11.8494V25.1699C56.2645 25.1699 56.2645 30.3558 61.4492 30.3558C66.6307 30.3558 66.6307 25.1699 66.6307 25.1699V0.708332H69.5952V30.3558C69.5952 30.3558 69.5952 37 61.446 37C53.3225 37 53.3225 30.3558 53.3225 30.3558ZM35.5419 25.2051V0.708332H38.5096V22.2147C38.5096 22.2147 38.4358 22.9615 39.2475 22.9615C40.0625 22.9615 39.9855 22.2179 39.9855 22.2179V0.711537H42.9467V25.1699C42.9467 25.1699 43.2515 28.8782 39.2475 28.8782C35.2467 28.8782 35.5419 25.2051 35.5419 25.2051ZM8.8935 28.8782L8.88708 14.8173C8.88708 14.8173 8.88708 14.0737 8.14917 14.0737C7.40483 14.0737 7.40483 14.8173 7.40483 14.8173V36.2212H4.44675V11.8526C4.44675 11.8526 4.44675 8.15384 8.14917 8.15384C11.8516 8.15384 11.8516 11.8494 11.8516 11.8494V25.1699C11.8516 25.1699 11.8516 30.3558 17.0266 30.3558C22.2177 30.3558 22.2177 25.1699 22.2177 25.1699V11.8526C22.2177 11.8526 22.1535 8.15384 25.9073 8.15384C29.6225 8.15384 29.6225 11.8494 29.6225 11.8494V36.2244H26.6613V14.8205C26.6613 14.8205 26.6612 14.0769 25.9009 14.0769C25.179 14.0769 25.179 14.8205 25.179 14.8205V28.8782C25.179 28.8782 25.0828 37 17.0234 37C8.96088 37 8.89029 28.8782 8.89029 28.8782H8.8935ZM71.0838 0.708332H77V36.2276H71.087L71.0838 0.708332ZM31.1048 28.8782V11.8494C31.1048 11.8494 31.1048 6.6891 25.9073 6.6891C20.7355 6.6891 20.7355 11.8494 20.7355 11.8494V25.1699C20.7355 25.1699 20.7355 28.8782 17.0266 28.8782C13.3242 28.8782 13.3242 25.1699 13.3242 25.1699V11.8526C13.3242 11.8526 13.3242 6.6891 8.14917 6.6891C2.9645 6.6891 2.9645 11.8494 2.9645 11.8494V36.2244H0V8.15384C0 8.15384 0 0.0032049 8.14917 0.0032049C16.2983 0.0032049 16.2983 8.15384 16.2983 8.15384L16.3304 22.3205C16.3304 22.3205 16.2983 22.9615 17.0266 22.9615C17.803 22.9615 17.7806 22.2179 17.7806 22.2179V8.15064C17.7806 8.15064 17.7806 0 25.9041 0C34.0693 0 34.0532 8.15064 34.0532 8.15064L34.0693 25.1699C34.0693 25.1699 33.8287 30.3526 39.2443 30.3526C44.6664 30.3526 44.4226 25.1667 44.4226 25.1667L44.429 8.14744C44.429 8.14744 44.429 0.0032049 52.5621 0.0032049C60.7017 0.0032049 60.7017 8.15064 60.7017 8.15064L60.7273 22.2147C60.7273 22.2147 60.7017 22.9583 61.4492 22.9583C62.1871 22.9583 62.1871 22.2147 62.1871 22.2147V0.708332H65.1516V25.1667C65.1516 25.1667 65.1516 28.875 61.4492 28.875C57.7372 28.875 57.7372 25.1667 57.7372 25.1667V11.8526C57.7372 11.8526 57.7372 6.6891 52.5621 6.6891C47.3935 6.6891 47.3935 11.8494 47.3935 11.8494V28.8782C47.3935 28.8782 47.3935 37 39.2443 37C31.1048 37 31.1048 28.8782 31.1048 28.8782Z" fill="#171717"/>
</svg>
