<svg width="77" height="43" viewBox="0 0 77 43" fill="none" xmlns="http://www.w3.org/2000/svg">
<path d="M38.5118 12.3588H38.5728C40.1255 12.3603 41.6401 12.8431 42.9104 13.7415C44.1807 14.6399 45.1451 15.9103 45.6724 17.3798C46.1996 18.8493 46.2641 20.4466 45.857 21.9543C45.45 23.462 44.5912 24.8069 43.3975 25.806C42.6308 26.5347 41.6812 27.0391 40.6508 27.2652C39.9743 27.4619 39.2738 27.5622 38.5696 27.5632H38.5086C37.788 27.5632 37.0902 27.4566 36.4274 27.2655C35.3973 27.0386 34.4478 26.5341 33.6807 25.806C32.8255 25.0946 32.1372 24.2016 31.6651 23.1911C31.1931 22.1806 30.9489 21.0776 30.9501 19.961C30.9527 17.9444 31.7504 16.0112 33.1681 14.5859C34.5858 13.1605 36.5077 12.3594 38.5118 12.3585V12.3588ZM6.51478 42.9428C10.574 43.4538 14.1763 40.4829 14.559 36.3014C14.6794 34.934 14.4432 33.5587 13.8737 32.3113C8.18729 19.757 36.2442 19.4693 31.5032 31.3176L31.4711 31.3693C29.2292 34.9778 30.4451 39.6642 34.1694 41.8294C35.54 42.6319 37.0578 42.9619 38.5407 42.8973C40.0236 42.9619 41.5418 42.6319 42.9117 41.8294C46.6366 39.661 47.8526 34.9778 45.6106 31.3693L45.5785 31.3176C40.8372 19.469 68.8973 19.7573 63.2045 32.3109C62.6363 33.5588 62.4012 34.9342 62.5224 36.3014C62.9083 40.4829 66.5078 43.4538 70.5698 42.9425C72.3239 42.7148 73.9421 41.8727 75.1404 40.5639C75.1404 40.5639 77.0285 38.9876 76.9997 34.9681C76.974 31.6895 75.1404 29.8739 75.1404 29.8739C74.3891 29.1074 73.4751 28.5217 72.467 28.1608C71.4588 27.7998 70.3826 27.673 69.3189 27.7898C64.1115 27.6736 63.3395 23.5695 64.8093 15.8347C65.3499 14.4623 65.5844 12.9932 65.5363 11.5237C65.6214 9.25869 65.0109 7.02233 63.7879 5.11888C62.5649 3.21543 60.7888 1.73731 58.7012 0.885656C58.5761 0.830776 58.4504 0.788809 58.3217 0.736834C58.1805 0.680473 58.0367 0.630812 57.8908 0.588013C55.5383 -0.210133 52.9861 -0.180841 50.6523 0.671092C48.3185 1.52302 46.3413 3.1471 45.0446 5.27735C42.4231 8.17405 41.2364 9.9315 38.5407 9.9315C35.9772 9.9315 34.6554 8.17405 32.0371 5.27735C30.7024 3.07697 28.6431 1.41722 26.2177 0.586991C23.7922 -0.243234 21.1543 -0.191353 18.7629 0.733606C18.6343 0.785258 18.5088 0.827226 18.3802 0.882428C16.2929 1.73421 14.5173 3.21246 13.2948 5.11596C12.0724 7.01946 11.4625 9.25575 11.5483 11.5204C11.497 12.9899 11.7351 14.4591 12.2721 15.8314C13.7419 23.5695 12.97 27.67 7.76603 27.7866C5.2154 27.5115 3.31126 28.5697 1.38786 30.5083C-0.542274 32.4436 -0.381215 37.6285 1.38786 39.8905C2.6712 41.5379 4.41108 42.6771 6.51478 42.9425" fill="#171717"/>
</svg>
