<svg width="77" height="23" viewBox="0 0 77 23" fill="none" xmlns="http://www.w3.org/2000/svg">
<path d="M46.0129 22.7048H43.0099V12.6587C43.9692 13.2196 45.2365 14.2508 46.0129 15.2416V22.7048ZM20.676 22.7048H16.9319L12.0449 6.89843H15.449L18.8113 18.0126H18.853L22.2571 6.89843H25.6839L20.676 22.7048ZM35.7555 22.7048H32.9001V21.1127H32.8359C32.4943 21.7405 31.977 22.2434 31.3537 22.5536C30.7722 22.8433 30.1368 22.9948 29.4928 22.997C28.8198 23.0204 28.1487 22.9075 27.5165 22.6645C27.0378 22.471 26.6178 22.1462 26.3005 21.724C25.9904 21.2832 25.7768 20.7764 25.6749 20.2394C25.5503 19.6018 25.49 18.9522 25.4949 18.3014V11.2615H28.4979V17.7271C28.4979 18.6709 28.6391 19.3762 28.9214 19.8397C29.2038 20.3066 29.7043 20.5384 30.4229 20.5384C31.2411 20.5384 31.8314 20.2831 32.2004 19.7759C32.5661 19.2654 32.749 18.4291 32.749 17.2636V11.2648H35.7523L35.7555 22.7048ZM46.5102 15.8193L46.5038 15.3759L50.2896 11.2581H53.8445L49.7217 15.4633L54.3097 22.7014H50.6714L46.5102 15.8193ZM54.8583 14.7781C54.9 14.0392 55.0765 13.4279 55.3877 12.9408C55.6923 12.4611 56.0973 12.0602 56.5719 11.7686C57.073 11.4641 57.6197 11.2506 58.1889 11.1372C58.7847 11.0128 59.3908 10.9498 59.9984 10.9491C60.547 10.9491 61.1052 10.9894 61.6699 11.07C62.2346 11.1506 62.7479 11.3118 63.2131 11.547C63.6783 11.7821 64.0601 12.1112 64.3553 12.5311C64.6505 12.9509 64.798 13.5085 64.798 14.2037V20.1588C64.798 20.6761 64.8269 21.1698 64.8815 21.6434C64.9084 22.0148 65.0089 22.3763 65.1766 22.7048H62.1319C62.0167 22.3474 61.9456 21.976 61.9202 21.5997C61.4551 22.1092 60.8712 22.4831 60.2262 22.6846C59.5812 22.8895 58.911 22.9936 58.237 22.9936C57.714 22.9936 57.2296 22.9264 56.7772 22.7955C56.3462 22.6751 55.9433 22.4637 55.5933 22.1741C55.2526 21.891 54.981 21.5272 54.8009 21.1127C54.6004 20.6312 54.503 20.1096 54.5153 19.5845C54.5153 18.9362 54.6244 18.3988 54.8426 17.979C55.045 17.5779 55.3353 17.2326 55.6896 16.9714C56.0361 16.7194 56.4307 16.5314 56.8735 16.4071C57.3162 16.2828 57.7654 16.182 58.2145 16.1082C58.6568 16.0367 59.1008 15.9773 59.546 15.9301C59.9823 15.8865 60.3705 15.8193 60.7074 15.732C60.9999 15.6654 61.2748 15.5324 61.5127 15.3424C61.7116 15.1711 61.8015 14.9259 61.7886 14.6001C61.8004 14.3205 61.7453 14.0422 61.6282 13.7906C61.5288 13.5995 61.3827 13.4395 61.2047 13.3271C61.0162 13.212 60.808 13.1367 60.5919 13.1054C60.3434 13.0667 60.0924 13.0476 59.8412 13.0483C59.2476 13.0483 58.7824 13.1793 58.4455 13.448C58.1087 13.7134 57.9097 14.1567 57.852 14.7781H54.8583ZM61.7954 17.1057C61.6568 17.2307 61.4952 17.3244 61.3205 17.3811C61.1312 17.4483 60.9259 17.502 60.7077 17.5491C60.4801 17.5941 60.2511 17.6311 60.0211 17.6599C59.7805 17.6901 59.5431 17.7271 59.3025 17.7707C59.0779 17.8144 58.8533 17.8749 58.6351 17.9488C58.4306 18.0154 58.2377 18.1164 58.0641 18.2477C57.901 18.3738 57.7672 18.5368 57.6726 18.7246C57.5662 18.9521 57.5155 19.2037 57.5251 19.4568C57.5251 19.739 57.5732 19.9741 57.6726 20.1655C57.7668 20.3503 57.9049 20.5065 58.0737 20.619C58.2557 20.735 58.4571 20.8136 58.6672 20.8507C58.8918 20.8944 59.126 20.9179 59.3666 20.9179C59.9602 20.9179 60.419 20.8138 60.743 20.6089C61.0399 20.4308 61.2876 20.175 61.4617 19.8666C61.6101 19.5977 61.7071 19.3011 61.7472 18.9933C61.7825 18.6978 61.7986 18.4627 61.8018 18.2846L61.7954 17.1057ZM66.7426 11.2581H69.598V12.8502H69.6622C70.044 12.1851 70.5349 11.7015 71.1413 11.3992C71.7476 11.0969 72.3668 10.9457 73.0021 10.9457C73.8074 10.9457 74.4651 11.0599 74.9816 11.2883C75.495 11.5167 75.8992 11.8358 76.1976 12.2389C76.4928 12.6453 76.7016 13.139 76.8203 13.7201C76.939 14.3112 77 14.9561 77 15.6648V22.7048H73.997V16.2391C73.997 15.2953 73.8558 14.59 73.5735 14.1265C73.2912 13.663 72.7907 13.4279 72.072 13.4279C71.2539 13.4279 70.6635 13.6831 70.2946 14.1903C69.9288 14.6975 69.7459 15.5372 69.7459 16.7027V22.7014H66.7426V11.2581ZM37.7447 9.28651V22.7081H40.7477V11.0196C39.7727 10.3938 38.7706 9.81551 37.7447 9.28651ZM7.1105 9.8575C8.84942 4.51673 19.2576 2.5616 30.3591 5.48406C37.0164 7.23733 42.4577 10.6364 46.0129 13.9985C44.3991 9.54144 36.5804 3.18331 25.8158 1.00683C13.643 -1.4585 1.63708 0.707895 0.151615 6.36405C-0.91997 10.4483 3.78987 15.2345 11.0792 18.5063C7.8035 15.7286 6.20896 12.6117 7.1105 9.8575ZM46.0161 12.0575V6.8981H43.0131V8.46328C44.2932 9.66236 45.3103 10.8816 46.0161 12.0572V12.0575Z" fill="#171717"/>
</svg>
