<svg width="90" height="350" fill="none" xmlns="http://www.w3.org/2000/svg"><circle cx="5" cy="345" r="5" transform="rotate(-90 5 345)" fill="#FBBF24"/><circle cx="5" cy="325" r="5" transform="rotate(-90 5 325)" fill="#FBBF24"/><circle cx="5" cy="305" r="5" transform="rotate(-90 5 305)" fill="#FBBF24"/><circle cx="5" cy="285" r="5" transform="rotate(-90 5 285)" fill="#FBBF24"/><circle cx="5" cy="265" r="5" transform="rotate(-90 5 265)" fill="#FBBF24"/><circle cx="5" cy="245" r="5" transform="rotate(-90 5 245)" fill="#FBBF24"/><circle cx="5" cy="225" r="5" transform="rotate(-90 5 225)" fill="#FBBF24"/><circle cx="5" cy="205" r="5" transform="rotate(-90 5 205)" fill="#FBBF24"/><circle cx="5" cy="185" r="5" transform="rotate(-90 5 185)" fill="#FBBF24"/><circle cx="5" cy="165" r="5" transform="rotate(-90 5 165)" fill="#FBBF24"/><circle cx="5" cy="145" r="5" transform="rotate(-90 5 145)" fill="#FBBF24"/><circle cx="5" cy="125" r="5" transform="rotate(-90 5 125)" fill="#FBBF24"/><circle cx="5" cy="105" r="5" transform="rotate(-90 5 105)" fill="#FBBF24"/><circle cx="5" cy="85" r="5" transform="rotate(-90 5 85)" fill="#FBBF24"/><circle cx="5" cy="65" r="5" transform="rotate(-90 5 65)" fill="#FBBF24"/><circle cx="5" cy="45" r="5" transform="rotate(-90 5 45)" fill="#FBBF24"/><circle cx="5" cy="25" r="5" transform="rotate(-90 5 25)" fill="#FBBF24"/><circle cx="5" cy="5" r="5" transform="rotate(-90 5 5)" fill="#FBBF24"/><circle cx="25" cy="345" r="5" transform="rotate(-90 25 345)" fill="#FBBF24"/><circle cx="25" cy="325" r="5" transform="rotate(-90 25 325)" fill="#FBBF24"/><circle cx="25" cy="305" r="5" transform="rotate(-90 25 305)" fill="#FBBF24"/><circle cx="25" cy="285" r="5" transform="rotate(-90 25 285)" fill="#FBBF24"/><circle cx="25" cy="265" r="5" transform="rotate(-90 25 265)" fill="#FBBF24"/><circle cx="25" cy="245" r="5" transform="rotate(-90 25 245)" fill="#FBBF24"/><circle cx="25" cy="225" r="5" transform="rotate(-90 25 225)" fill="#FBBF24"/><circle cx="25" cy="205" r="5" transform="rotate(-90 25 205)" fill="#FBBF24"/><circle cx="25" cy="185" r="5" transform="rotate(-90 25 185)" fill="#FBBF24"/><circle cx="25" cy="165" r="5" transform="rotate(-90 25 165)" fill="#FBBF24"/><circle cx="25" cy="145" r="5" transform="rotate(-90 25 145)" fill="#FBBF24"/><circle cx="25" cy="125" r="5" transform="rotate(-90 25 125)" fill="#FBBF24"/><circle cx="25" cy="105" r="5" transform="rotate(-90 25 105)" fill="#FBBF24"/><circle cx="25" cy="85" r="5" transform="rotate(-90 25 85)" fill="#FBBF24"/><circle cx="25" cy="65" r="5" transform="rotate(-90 25 65)" fill="#FBBF24"/><circle cx="25" cy="45" r="5" transform="rotate(-90 25 45)" fill="#FBBF24"/><circle cx="25" cy="25" r="5" transform="rotate(-90 25 25)" fill="#FBBF24"/><circle cx="25" cy="5" r="5" transform="rotate(-90 25 5)" fill="#FBBF24"/><circle cx="45" cy="345" r="5" transform="rotate(-90 45 345)" fill="#FBBF24"/><circle cx="45" cy="325" r="5" transform="rotate(-90 45 325)" fill="#FBBF24"/><circle cx="45" cy="305" r="5" transform="rotate(-90 45 305)" fill="#FBBF24"/><circle cx="45" cy="285" r="5" transform="rotate(-90 45 285)" fill="#FBBF24"/><circle cx="45" cy="265" r="5" transform="rotate(-90 45 265)" fill="#FBBF24"/><circle cx="45" cy="245" r="5" transform="rotate(-90 45 245)" fill="#FBBF24"/><circle cx="45" cy="225" r="5" transform="rotate(-90 45 225)" fill="#FBBF24"/><circle cx="45" cy="205" r="5" transform="rotate(-90 45 205)" fill="#FBBF24"/><circle cx="45" cy="185" r="5" transform="rotate(-90 45 185)" fill="#FBBF24"/><circle cx="45" cy="165" r="5" transform="rotate(-90 45 165)" fill="#FBBF24"/><circle cx="45" cy="145" r="5" transform="rotate(-90 45 145)" fill="#FBBF24"/><circle cx="45" cy="125" r="5" transform="rotate(-90 45 125)" fill="#FBBF24"/><circle cx="45" cy="105" r="5" transform="rotate(-90 45 105)" fill="#FBBF24"/><circle cx="45" cy="85" r="5" transform="rotate(-90 45 85)" fill="#FBBF24"/><circle cx="45" cy="65" r="5" transform="rotate(-90 45 65)" fill="#FBBF24"/><circle cx="45" cy="45" r="5" transform="rotate(-90 45 45)" fill="#FBBF24"/><circle cx="45" cy="25" r="5" transform="rotate(-90 45 25)" fill="#FBBF24"/><circle cx="45" cy="5" r="5" transform="rotate(-90 45 5)" fill="#FBBF24"/><circle cx="65" cy="345" r="5" transform="rotate(-90 65 345)" fill="#FBBF24"/><circle cx="65" cy="325" r="5" transform="rotate(-90 65 325)" fill="#FBBF24"/><circle cx="65" cy="305" r="5" transform="rotate(-90 65 305)" fill="#FBBF24"/><circle cx="65" cy="285" r="5" transform="rotate(-90 65 285)" fill="#FBBF24"/><circle cx="65" cy="265" r="5" transform="rotate(-90 65 265)" fill="#FBBF24"/><circle cx="65" cy="245" r="5" transform="rotate(-90 65 245)" fill="#FBBF24"/><circle cx="65" cy="225" r="5" transform="rotate(-90 65 225)" fill="#FBBF24"/><circle cx="65" cy="205" r="5" transform="rotate(-90 65 205)" fill="#FBBF24"/><circle cx="65" cy="185" r="5" transform="rotate(-90 65 185)" fill="#FBBF24"/><circle cx="65" cy="165" r="5" transform="rotate(-90 65 165)" fill="#FBBF24"/><circle cx="65" cy="145" r="5" transform="rotate(-90 65 145)" fill="#FBBF24"/><circle cx="65" cy="125" r="5" transform="rotate(-90 65 125)" fill="#FBBF24"/><circle cx="65" cy="105" r="5" transform="rotate(-90 65 105)" fill="#FBBF24"/><circle cx="65" cy="85" r="5" transform="rotate(-90 65 85)" fill="#FBBF24"/><circle cx="65" cy="65" r="5" transform="rotate(-90 65 65)" fill="#FBBF24"/><circle cx="65" cy="45" r="5" transform="rotate(-90 65 45)" fill="#FBBF24"/><circle cx="65" cy="25" r="5" transform="rotate(-90 65 25)" fill="#FBBF24"/><circle cx="65" cy="5" r="5" transform="rotate(-90 65 5)" fill="#FBBF24"/><circle cx="85" cy="345" r="5" transform="rotate(-90 85 345)" fill="#FBBF24"/><circle cx="85" cy="325" r="5" transform="rotate(-90 85 325)" fill="#FBBF24"/><circle cx="85" cy="305" r="5" transform="rotate(-90 85 305)" fill="#FBBF24"/><circle cx="85" cy="285" r="5" transform="rotate(-90 85 285)" fill="#FBBF24"/><circle cx="85" cy="265" r="5" transform="rotate(-90 85 265)" fill="#FBBF24"/><circle cx="85" cy="245" r="5" transform="rotate(-90 85 245)" fill="#FBBF24"/><circle cx="85" cy="225" r="5" transform="rotate(-90 85 225)" fill="#FBBF24"/><circle cx="85" cy="205" r="5" transform="rotate(-90 85 205)" fill="#FBBF24"/><circle cx="85" cy="185" r="5" transform="rotate(-90 85 185)" fill="#FBBF24"/><circle cx="85" cy="165" r="5" transform="rotate(-90 85 165)" fill="#FBBF24"/><circle cx="85" cy="145" r="5" transform="rotate(-90 85 145)" fill="#FBBF24"/><circle cx="85" cy="125" r="5" transform="rotate(-90 85 125)" fill="#FBBF24"/><circle cx="85" cy="105" r="5" transform="rotate(-90 85 105)" fill="#FBBF24"/><circle cx="85" cy="85" r="5" transform="rotate(-90 85 85)" fill="#FBBF24"/><circle cx="85" cy="65" r="5" transform="rotate(-90 85 65)" fill="#FBBF24"/><circle cx="85" cy="45" r="5" transform="rotate(-90 85 45)" fill="#FBBF24"/><circle cx="85" cy="25" r="5" transform="rotate(-90 85 25)" fill="#FBBF24"/><circle cx="85" cy="5" r="5" transform="rotate(-90 85 5)" fill="#FBBF24"/></svg>