<svg width="77" height="45" viewBox="0 0 77 45" fill="none" xmlns="http://www.w3.org/2000/svg">
<path d="M57.118 0.502171C55.2421 0.538326 53.4129 1.10159 51.8338 2.12931C51.0478 2.73135 50.1013 3.82153 50.1719 5.92054C50.2425 6.96191 50.2714 6.8773 50.5312 7.80802C51.2756 9.21713 52.0007 9.83219 53.1813 10.867C53.3738 11.02 53.4348 11.0623 53.608 11.1892C54.4903 12.0288 55.3822 12.9986 56.1426 13.8675C56.8067 14.7006 57.5286 15.6248 58.0805 16.5523C58.8152 17.8279 58.9242 17.7531 59.8322 19.5722C60.753 21.6712 61.1091 24.1022 60.5573 26.3021C59.9853 28.2638 59.0246 30.0865 57.734 31.6586L58.8472 35.3587L59.8194 31.7302L61.3048 31.74L62.2609 35.3652L63.3517 31.7465H64.8468L63.0694 37.1551C64.0319 35.8859 64.7634 34.7469 65.5174 33.2597L66.8296 33.4875C66.9451 33.1849 67.083 32.9831 67.2948 32.892C67.4231 32.8334 67.4969 32.7879 67.9044 32.7879C68.2252 32.7846 68.5974 32.8399 68.7161 33.097C68.7578 33.2109 68.8059 33.3053 68.7899 33.6925C68.3308 33.8341 67.8637 33.9471 67.391 34.031C66.4221 34.223 66.0211 34.3727 65.7195 34.6558C65.557 34.7981 65.4285 34.9761 65.344 35.1763C65.2595 35.3765 65.2212 35.5936 65.2318 35.8111C65.2318 36.169 65.296 36.4099 65.4564 36.6572C65.7099 37.0542 66.066 37.2983 66.5601 37.4057C66.8809 37.4773 67.529 37.4643 67.821 37.3796C68.1336 37.2832 68.427 37.1311 68.6872 36.9305L68.9118 36.7581L69.0915 37.3211H70.6379L70.5898 37.2234C70.4858 36.9937 70.4051 36.7538 70.3491 36.5075C70.3106 36.3318 70.3042 36.0779 70.301 34.7241C70.301 33.4192 70.2914 33.1068 70.2561 32.9278C70.1855 32.5633 70.1277 32.4071 69.9288 32.2249C69.7102 31.986 69.4207 31.826 69.1043 31.7693C68.5825 31.6657 68.0488 31.6383 67.5194 31.6879C66.8264 31.7465 66.1719 32.0459 65.9473 32.4039C65.9473 32.4104 65.9473 32.4104 65.9409 32.4136C68.2958 27.5615 69.1556 22.0325 66.82 17.1315C65.4725 14.1376 63.4961 12.1785 61.2022 10.291C63.4801 10.3203 65.588 10.5969 67.7247 10.3561C68.2605 10.3171 68.6872 10.291 69.1845 10.1739C69.4978 10.0043 69.8499 9.92233 70.2048 9.93632C71.2795 9.55883 71.4111 9.23991 71.4207 8.98607C71.3533 8.39705 70.3459 7.93494 69.8582 7.70714L66.7782 8.36451C66.5954 8.23433 64.0993 7.41426 64.1153 6.42821C64.125 6.03119 64.5324 5.97912 64.6287 5.01911L64.6319 4.16323L64.4458 3.19346C64.2437 2.92661 63.0822 2.17487 62.4374 1.82341C61.6642 1.43289 61.199 1.20509 60.6343 1.05865C59.5034 0.665698 58.3132 0.477341 57.118 0.502171ZM36.8028 2.64023C31.4545 2.60769 26.2698 4.29666 22.5033 8.59556C20.7387 10.4798 19.1024 12.7415 17.8255 14.8535C19.096 15.1236 20.0617 15.4588 21.5632 15.8949C22.9685 16.2106 24.0657 17.125 25.0346 17.483L25.3234 17.3268C22.1118 15.6996 23.1257 16.0251 24.4122 16.4611C26.7318 18.5894 30.261 18.1534 32.5774 20.2426L33.357 20.6982C33.7196 20.568 32.324 19.8033 32.5614 19.7805L32.7635 19.7935C32.6929 19.7903 29.9979 18.059 30.2129 18.0688C29.9402 17.5969 29.3562 17.3365 29.0643 17.0664C29.7926 17.304 30.9476 18.2868 31.4128 18.4593L31.6502 18.2543C31.7561 18.1599 31.6662 18.6936 32.1026 18.7912L32.4234 18.2543C32.478 18.1696 32.7025 18.7294 32.8437 18.7652C32.94 18.7912 32.8565 18.5667 33.0811 18.404C32.6865 18.1469 32.632 18.1599 32.247 17.9549C31.7529 17.8605 31.6598 17.8182 30.7743 17.1803C31.7047 17.1022 31.8203 17.4732 32.2502 17.6685C33.6618 18.0785 35.1377 18.5797 36.3376 19.4974L36.4435 19.3672C36.498 19.3021 38.1952 20.6201 38.0797 20.5062L38.2882 20.2361C38.3268 20.1873 38.7118 20.7958 38.7438 20.76L38.9363 20.542C39.7448 21.2775 39.8218 21.7689 40.6303 22.3351C41.1437 22.5792 42.3628 23.549 43.1649 24.0534C44.7851 25.5178 45.446 26.1361 43.0719 24.304C42.5393 24.0013 41.0923 22.5955 41.3779 23.78C41.9105 24.1868 43.5307 24.9906 42.8088 25.0394C42.8345 25.0524 42.9339 25.2867 44.0119 25.9018C44.4707 26.1654 45.446 26.8716 45.446 26.8716L45.491 26.7902L46.0556 27.3109C46.0171 27.2719 45.6482 27.2686 45.4525 27.2393C44.5477 26.5234 44.5862 26.608 44.5028 26.6112C43.8258 27.3792 45.1701 27.1189 44.6055 27.5875C45.0995 27.8609 45.5744 28.2774 45.9433 28.6517C45.9818 29.0487 46.3604 29.27 46.7903 29.6833C47.2202 30.0966 47.7047 30.7084 48.0384 31.0175C50.7526 29.7516 52.2573 27.8414 53.0145 26.058C53.961 23.5978 53.8005 22.7386 53.2904 20.8967C52.7193 19.0841 51.0093 17.1445 49.495 15.9274C48.6929 15.2017 47.9068 14.7299 46.678 13.7959C44.4643 11.3519 43.6173 9.23665 43.4087 7.39799C43.1649 5.71878 43.6012 4.15022 43.9478 3.11861C41.7019 2.89081 39.2892 2.63047 37.3225 2.64674C37.1493 2.64277 36.9761 2.6406 36.8028 2.64023ZM17.8255 14.8535C17.5688 14.808 17.3218 14.7624 17.0908 14.7559C16.9437 14.7459 16.7961 14.7664 16.6571 14.8162C16.5181 14.866 16.3906 14.944 16.2823 15.0455C16.6994 15.0943 17.1165 15.1432 17.5592 15.2864L17.8255 14.8535ZM17.5592 15.2864L17.3025 15.6964C18.0052 15.7712 18.31 15.7452 18.9548 15.8266C19.5644 15.9893 20.6938 16.3147 21.2327 16.5002C21.2841 16.5425 21.5151 16.3928 21.3932 16.3245C20.1419 15.7582 18.7784 15.6476 17.5592 15.2864ZM17.3025 15.6964H16.7603L17.2095 15.8428L17.3025 15.6964ZM17.2127 15.8428L17.1133 16.0544C17.8063 16.1552 20.2767 16.9981 20.466 17.0209C20.6039 17.0372 20.6681 16.8647 20.5462 16.8094C20.1162 16.6401 19.5291 16.4969 18.9163 16.3082C18.356 16.1259 17.7875 15.9706 17.2127 15.8428ZM17.1133 16.0544C16.4395 15.9144 16.0673 15.7354 15.2588 15.5044C14.4311 15.1594 11.6334 14.6843 13.4718 15.602C13.6065 15.9209 11.8484 15.4686 12.3777 15.2929C12.1852 15.2994 9.23358 14.4044 10.0645 14.9935C8.80688 14.5379 9.07638 14.5737 8.8935 15.218C8.25183 14.8177 7.83154 14.6811 7.39842 14.6778C7.14175 14.6778 6.87546 14.7266 6.55783 14.7982C5.44133 14.5932 6.16 14.7364 6.02525 15.2636C6.391 15.6671 8.53096 16.1683 8.98333 16.2724C10.0164 16.4969 12.5606 17.2975 12.4644 17.099C11.5596 16.5653 12.9328 17.1283 13.321 17.3203C13.783 17.6067 15.1818 17.5774 15.0856 18.0525C15.331 18.0597 15.5675 18.1477 15.7593 18.3031C16.154 17.6034 16.5454 16.8972 17.1133 16.0576V16.0544ZM15.4193 15.2278C15.6342 15.4556 15.8684 15.4003 16.1636 15.4816C16.3753 15.4621 17.1004 15.423 17.2416 15.4393C17.187 15.4263 16.5037 15.2343 15.4193 15.2278ZM14.1102 15.4718C14.415 15.4784 15.4802 16.2008 14.7327 15.9209C13.953 15.7094 13.6867 15.5044 14.0589 15.4816C14.075 15.4742 14.0926 15.4708 14.1102 15.4718ZM5.52796 15.5076C5.41888 15.4979 5.34829 15.768 5.90975 15.8461C6.083 15.8721 5.6595 15.5434 5.52475 15.5076H5.52796ZM6.23379 15.7354C6.13754 15.8038 6.33004 15.9567 7.39842 16.152C8.2775 16.3147 6.43271 15.7322 6.237 15.7354H6.23379ZM15.4674 15.8331C15.5957 15.8331 16.2278 16.2333 15.9967 16.2073C15.2396 16.1162 15.1786 15.8298 15.4674 15.8331ZM7.42408 16.4514C8.15879 16.92 8.41867 17.0046 7.59092 16.8875C8.06254 17.2031 9.13092 17.3756 8.70742 17.8833C8.88387 17.9711 9.35229 17.8637 9.42608 18.0362C9.49987 18.2087 9.47742 18.2412 9.10204 18.4593C8.84538 18.622 7.52996 18.2543 6.91075 18.1664C6.20492 17.9809 5.70442 17.9711 5.005 17.8735C3.5035 17.7238 4.99537 18.1566 2.849 18.0232C1.10046 17.9191 2.22979 18.3812 2.06617 18.4202C1.74533 18.8661 1.155 18.1957 1.06196 18.277C0.920792 18.4625 1.02988 18.8856 0.141167 18.2966L0 18.7977C1.27371 18.7652 1.67475 19.2728 1.91537 18.6838C2.46079 18.7261 2.87787 18.9962 3.05112 19.1166C3.22437 19.237 2.62121 19.4746 2.99979 19.4258C3.32383 19.0613 3.55162 19.6438 3.76979 19.6113C3.91096 19.6113 4.15479 19.3444 4.31521 19.3249C4.38258 19.3444 4.56867 19.6438 4.73229 19.6276C4.87025 19.6145 5.14617 19.3998 5.21033 19.4421C6.45837 19.6568 6.776 19.7577 6.99417 20.0148C7.80267 19.9758 8.75875 20.5485 10.0838 20.695C13.2312 21.7884 7.18346 20.0669 5.39321 20.1743C4.79004 20.2296 2.59554 19.7512 3.66712 20.363C4.59113 20.7763 5.21354 21.1929 5.66912 20.8805C5.82312 20.7958 8.53737 22.039 6.75354 20.9423C7.13854 20.9976 7.48183 20.9097 7.79946 21.0887C8.77158 21.6192 9.30737 21.2775 9.61217 21.5248C10.5009 22.0325 11.1329 21.886 11.8516 21.9641C12.2558 22.0357 13.1702 22.1594 13.3787 22.3026C13.7445 22.3774 13.5937 22.3481 14.0589 22.4262L14.3862 21.5573C12.2334 21.3133 12.1628 21.1929 9.43571 20.3598L9.48062 20.1775C10.1512 20.3988 10.5811 20.503 11.149 20.5908L11.1875 20.2849C11.4762 20.3565 12.6954 20.6266 12.7563 20.5811C12.0665 20.2752 12.1147 20.4379 12.2334 20.2101C12.5863 20.1027 14.0204 20.747 14.2001 20.6624C14.7006 20.6461 14.5947 20.6722 14.7198 20.6852C15.2139 19.3347 15.2685 19.4486 15.6053 18.5569C15.3367 18.4544 15.0742 18.336 14.8193 18.2022C14.5337 18.3389 15.4481 18.6643 13.8375 18.1761C13.3659 17.8507 13.4365 17.7043 13.3467 18.1696C13.1734 18.0492 13.0611 18.1534 12.259 17.5416C11.1329 17.1445 8.21333 16.4416 7.42408 16.4481V16.4514ZM14.7198 20.6852L14.3862 21.5573C15.0663 21.6224 14.922 21.5736 15.3583 21.5248C15.7914 21.4792 16.8694 21.9088 17.3507 22.1464C17.633 22.3319 17.6555 22.3872 18.5153 22.6898C18.9869 22.7712 20.3569 23.4774 21.3258 23.7182C21.4413 23.6856 22.4904 24.0892 23.0134 24.2063C23.3406 24.3365 23.6326 24.509 23.9117 24.7172C24.3833 24.9158 24.5758 25.0004 25.1309 25.0752C25.657 25.3063 25.0731 25.1533 25.7758 25.456C26.5458 25.8562 26.9243 26.2435 27.1938 26.3249C27.5275 26.1524 28.2847 25.9343 28.413 25.9018C27.8612 25.7716 27.0077 25.1143 25.7918 24.6391C23.793 24.151 22.1439 22.8493 20.3055 22.0227L18.9612 21.655C18.8393 21.6647 18.8233 21.7233 18.8201 21.8177C20.0842 22.218 20.5333 22.3449 20.9921 22.5824C21.576 23.1031 22.0252 23.1845 22.1182 23.3016C21.0755 22.986 21.1718 23.025 20.2253 22.7354C19.465 22.4816 19.3463 22.3026 18.3645 21.9967C17.8576 21.8372 17.2223 21.4565 16.6448 21.2384C16.0328 20.9608 15.3844 20.7745 14.7198 20.6852ZM14.0589 22.4262C11.8002 28.6842 10.6356 31.7595 5.64667 35.0626C4.47883 35.8078 3.15058 36.3643 1.76458 36.4522V44.4805C6.60917 44.487 11.4505 44.4837 16.2919 44.5C15.4064 37.0835 19.8981 29.5856 26.565 26.5852C25.3458 25.648 25.3137 25.9278 25.118 26.0255C24.3224 25.4364 21.4285 23.8223 21.3964 23.7865C21.0755 23.7507 20.2414 23.3797 20.1195 23.5425C20.0392 23.7214 20.5365 23.7768 20.7194 23.8158C21.4413 23.9492 24.7042 25.9767 24.9544 26.3932C23.5171 26.4746 22.3557 25.0589 21.1654 24.7498L21.191 24.3658C20.4339 23.9753 19.8596 23.9688 19.6478 23.8256C19.3912 24.3007 16.3882 22.6996 15.8941 22.7159C15.1562 22.8233 15.2107 22.5987 14.0589 22.4262ZM17.0683 18.0948C17.0138 18.0948 17.0459 18.1273 17.248 18.2282C17.418 18.2901 18.9003 18.8953 18.0693 18.6936C17.5303 19.0743 19.4329 18.7359 18.8522 19.0711C17.5752 18.7099 20.6071 20.0669 19.8403 19.2989C19.542 18.8205 19.42 19.0125 19.2211 18.9084C18.634 18.6057 18.2683 18.4951 17.8929 18.3291C17.7966 18.2998 17.1999 18.1013 17.0683 18.0948ZM17.8929 18.3291L17.8415 18.3096L17.8929 18.3291ZM3.21475 18.1599C3.63183 18.1599 4.06817 18.1924 4.21896 18.2054C5.39321 18.059 5.5825 18.596 4.56225 18.4918C4.466 18.4853 4.21575 18.2543 3.81471 18.6513C3.57729 18.622 3.41046 18.3714 3.13454 18.3128C3.36233 18.6383 4.07458 18.7749 2.71425 18.5992C1.8865 18.2282 2.52175 18.1534 3.21475 18.1599ZM5.59212 18.2673C5.75254 18.2608 5.94825 18.3226 6.00279 18.5179C5.17825 18.469 5.32904 18.277 5.59212 18.2673ZM33.6747 19.1785L33.665 19.1817C33.2736 19.4421 33.8255 19.9367 34.9002 20.3142C34.5826 19.8651 34.7655 19.8489 34.2746 19.6861C34.4896 20.2459 33.7934 19.1817 33.6747 19.1785ZM15.2781 19.569C14.5402 20.0246 16.8373 20.5485 16.5197 20.3988C16.385 19.8358 17.7998 20.9651 17.2159 20.2589C16.3818 20.0701 16.863 19.9237 16.5646 19.9465C16.0577 20.1613 15.6182 19.6276 15.2781 19.5722V19.569ZM8.64646 19.6243C8.6625 19.6243 8.67854 19.6308 8.69779 19.6406C8.77158 19.6861 8.86462 19.8033 8.99617 19.8749C9.02825 19.9953 8.90312 20.0051 8.77479 19.9693C8.64646 19.9367 8.51492 19.8619 8.52454 19.8228C8.55983 19.6699 8.59833 19.621 8.64646 19.621V19.6243ZM11.3575 19.9172C11.4088 19.9172 11.5115 19.9985 11.6623 20.2491C11.3511 20.2361 11.258 19.9237 11.3575 19.9204V19.9172ZM35.1377 20.0669C34.8682 20.3044 35.7408 21.0269 36.0039 20.5388C35.5676 20.1287 36.1772 20.939 35.1377 20.0669ZM22.3364 20.0766C21.4477 20.2882 21.4541 20.0994 22.5065 20.7177C23.469 21.1668 22.4968 21.0269 22.1022 20.7568C22.115 20.8544 22.9043 21.463 22.808 21.3751C23.1866 21.6452 24.2646 22.0748 23.8347 21.5118C24.2197 21.0236 23.2155 20.9846 23.2123 20.913C22.8776 20.7755 22.5725 20.5732 22.314 20.3175C21.7204 20.363 22.6957 20.1222 22.3364 20.0766ZM22.314 20.3175H22.3268C22.314 20.311 22.3107 20.311 22.314 20.3175ZM23.2123 20.913C23.3021 20.9358 23.3663 20.9228 23.3888 20.8577C23.2604 20.8805 23.2123 20.9 23.2123 20.913ZM24.1106 30.1942V31.7725H23.4946V32.5601H24.1106L24.1363 35.8729C24.162 36.6019 24.5502 37.1356 25.2079 37.3276C25.7533 37.4187 26.2345 37.3699 26.7415 37.2365L26.7286 36.3773C26.4793 36.4858 26.2134 36.5496 25.9426 36.5661C25.3972 36.5335 25.2047 36.4522 25.0603 35.9054L25.0443 32.5535L26.7447 32.5601V31.7725H25.0539V30.1942H24.1106ZM38.9139 31.6131C38.3696 31.6198 37.8463 31.8268 37.4412 32.1956L37.2616 32.342V31.7725H36.3215V37.269H37.2616V33.1719L37.4669 33.0189C37.7173 32.8267 37.9969 32.6772 38.2947 32.5763C38.5443 32.5228 38.8022 32.5228 39.0518 32.5763C39.2443 32.6316 39.4048 32.7651 39.4946 32.9441C39.6454 33.2435 39.655 33.3508 39.6678 35.3978L39.6807 37.269H40.6175L40.6079 35.2351C40.5982 33.263 40.595 33.1914 40.5373 32.9571C40.3769 32.2899 40.0015 31.8506 39.4336 31.6781C39.2633 31.6367 39.089 31.6148 38.9139 31.6131ZM75.0108 31.6196C74.6719 31.6225 74.3373 31.6979 74.0291 31.8409C73.7582 31.9826 73.5113 32.1672 73.2976 32.3876L73.1885 32.5145V31.7432H71.764V37.3243H73.2944L73.2847 34.4182C73.2527 32.9929 74.0098 32.7781 74.5617 32.7553C75.1873 32.7748 75.4408 33.2109 75.46 33.8357C75.4536 35.0008 75.4632 36.1625 75.4728 37.3243H77L76.9904 35.209C76.9807 33.2858 76.9743 33.0742 76.9326 32.8985C76.8822 32.6525 76.7718 32.4232 76.6115 32.2316C76.4512 32.0401 76.2462 31.8923 76.015 31.8018C75.6963 31.6716 75.3544 31.6095 75.0108 31.6196ZM32.9464 31.6196C32.7329 31.6174 32.5199 31.6392 32.3111 31.6847C31.3486 31.9515 30.7134 32.7813 30.5786 33.9594C30.5273 34.3857 30.5594 35.1147 30.6428 35.4824C30.7711 36.0454 30.9636 36.4066 31.3294 36.7809C31.4635 36.9321 31.6232 37.0577 31.801 37.1518C32.0369 37.2745 32.2902 37.359 32.5518 37.4024C32.8084 37.4447 33.402 37.4154 33.6586 37.3536C33.9606 37.2772 34.2428 37.136 34.4863 36.9395C34.7299 36.743 34.929 36.4958 35.0703 36.2146C35.3141 35.7265 35.3815 35.4108 35.4007 34.6688C35.4385 34.1945 35.3862 33.7173 35.2467 33.263C35.1084 32.7623 34.804 32.3254 34.3849 32.026C33.9658 31.7266 33.4577 31.583 32.9464 31.6196ZM43.8355 31.6228C43.5515 31.6213 43.27 31.6769 43.0073 31.7864C42.7447 31.8959 42.506 32.0571 42.3051 32.2607C42.0526 32.5004 41.8592 32.7969 41.7404 33.1263C41.5062 33.7121 41.442 34.5094 41.5704 35.2806C41.7308 36.2569 42.2441 36.898 42.9949 37.103C43.469 37.2118 43.9632 37.1894 44.4258 37.0379C44.7178 36.9078 44.9199 36.7353 45.1477 36.5563L45.1412 36.9956C45.139 37.1944 45.1197 37.3926 45.0835 37.5879C44.9969 37.9459 44.8525 38.1867 44.5605 38.3364C44.2663 38.4873 43.9356 38.5494 43.6077 38.5154C42.9788 38.5024 42.4398 38.2778 42.042 38.1379L42.0292 39.1369C42.35 39.215 42.7029 39.2899 42.9756 39.3224C43.5692 39.3973 44.198 39.3615 44.6247 39.2248C45.446 39.0296 45.9883 38.2518 46.062 37.0444V31.7725H45.2086L45.1637 32.0003L44.9167 31.8636C44.4162 31.6228 44.0697 31.6261 43.8355 31.6228ZM21.2809 31.6326C21.0505 31.6281 20.8206 31.6554 20.5975 31.7139C19.9783 31.8994 19.5163 32.3388 19.3783 32.8757C19.3488 33.0224 19.3349 33.1719 19.3366 33.3216C19.3366 33.8097 19.4585 34.1254 19.7537 34.4052C20.0425 34.6818 20.3505 34.7892 21.2648 34.9812C21.9129 35.1179 22.1632 35.2351 22.269 35.5572C22.3332 36.1267 22.2755 36.2569 21.9258 36.4782C21.6765 36.5682 21.4139 36.6144 21.1493 36.6149C20.6681 36.6604 19.9558 36.3838 19.3719 35.9054H19.3142V36.9468C19.6671 37.1291 20.0521 37.2657 20.4531 37.3634C20.774 37.448 21.6787 37.4122 21.9033 37.3373C22.3813 37.1811 22.8658 36.8492 23.0519 36.488C23.1946 36.2376 23.2615 35.9501 23.2444 35.6614C23.2412 34.825 22.853 34.3922 21.9033 34.1677L21.2103 34.005C20.9452 33.957 20.6935 33.8515 20.4724 33.6958C20.328 33.5624 20.251 33.2532 20.3055 33.0254C20.3537 32.8302 20.466 32.7065 20.652 32.5926C21.2199 32.2411 22.2498 32.4364 22.9685 33.0157H23.0422V32.0133C22.6983 31.8516 22.3347 31.7367 21.961 31.6716C21.7371 31.6486 21.5123 31.6356 21.2873 31.6326H21.2809ZM29.8664 31.7693C29.394 31.8139 28.949 32.0138 28.5991 32.3388L28.3007 32.5991L28.3039 31.7758H27.3992L27.412 37.2625L28.3264 37.269L28.3135 33.3671C28.5517 33.1478 28.8237 32.9697 29.1188 32.8399C29.5937 32.6674 29.7445 32.7098 30.2835 32.7651V31.7725H29.8664V31.7693ZM32.9624 32.4331C33.126 32.4331 33.2929 32.4559 33.4565 32.5047C33.9057 32.6479 34.2169 33.0319 34.3645 33.6209C34.4447 33.9464 34.4671 34.825 34.4062 35.1895C34.2842 35.9022 33.957 36.3643 33.4565 36.5335C33.2238 36.6136 32.9747 36.6318 32.7332 36.5862C32.4916 36.5406 32.2656 36.4328 32.0769 36.2732C31.7144 35.9282 31.554 35.4694 31.5283 34.6916C31.4962 33.7902 31.6566 33.1849 32.0256 32.8106C32.2781 32.5669 32.6138 32.4316 32.9624 32.4331ZM43.9349 32.4592H44.0697C44.4478 32.4837 44.8159 32.5926 45.1477 32.7781V35.7655L44.9873 35.8794C44.7518 36.041 44.4916 36.162 44.2172 36.2374C43.9217 36.307 43.6144 36.307 43.3189 36.2374C42.9403 36.1137 42.7093 35.8404 42.5746 35.3392C42.4954 34.9817 42.463 34.6151 42.4783 34.249C42.5297 33.5526 42.6901 33.1426 43.0366 32.8106C43.1543 32.6923 43.2949 32.6 43.4495 32.5395C43.6041 32.479 43.7694 32.4517 43.9349 32.4592ZM56.6399 32.8009C53.3867 35.72 50.5858 36.3676 48.9175 36.7971C49.7099 39.0621 50.0083 41.7111 49.8447 44.103C54.9652 43.2406 59.598 41.1611 62.9218 37.3243L61.5422 37.3211L60.5477 33.7479L59.5884 37.3211L58.1125 37.3243L56.6399 32.8009ZM68.7674 34.6884C68.7899 34.6949 68.7899 34.7795 68.7803 35.1082C68.7642 35.6158 68.7193 35.772 68.53 35.9868C68.351 36.1642 68.13 36.292 67.8883 36.3578C67.5322 36.4489 67.2082 36.3741 66.9804 36.1463C66.621 35.7818 66.7462 35.2546 67.2338 35.0724C67.3782 35.017 67.4905 34.9877 68.2894 34.8022C68.4495 34.7679 68.6089 34.7299 68.7674 34.6884Z" fill="#171717"/>
</svg>
